<svg id="Layer_1" data-name="Layer 1" xmlns="http://www.w3.org/2000/svg" viewBox="0 0 224.64 105.56"><defs><style>.cls-1{fill:#231f20}.cls-3{fill:#8dc63f}</style></defs><path class="cls-1" d="M522.11 352.2c-.05-.57 0-3.54-.12-6.62h.45s2.51 7.78 7.42 6.35a2.59 2.59 0 0 0 1.81-1.68c1.61-5.09-8.22-4.18-9.45-8.88-1.44-5.53 5.74-8.26 10.43-5.38.26.52.9 4.8.92 4.81s-.62.08-.68 0-1.08-3.19-3.53-4.37c-.51-.24-3.64-.92-4.32 1.69-1.3 5 12.13 3.21 9.35 11.33a5.43 5.43 0 0 1-3.11 3.35c-1.85.85-4.55.6-6.51.25a21.18 21.18 0 0 1-2.66-.87zM507.4 336.33c-8.25 0-7.13 17 .57 15.62 7.1-1.24 6.39-15.62-.57-15.62zm-.79-1.15c11.73-1.13 14.8 15.79 2.37 17.8-13.11 2.12-16.31-16.47-2.37-17.8zM411.28 335.07c-.06.43 0 2.69 0 3.42 5.87-7.61 9.48.7 6 1.65-2.29.63-1.94-1.7-3.88-1.51-.69.07-1.37.63-1.86 2.07a4.39 4.39 0 0 0-.26 1.5 62.13 62.13 0 0 0 .16 7.89 3.4 3.4 0 0 0 3.36 2.35v.56h-10.45v-.48c.77 0 3-1.09 3-2.81 0-4.81.13-8.09-.22-9.35a3.12 3.12 0 0 0-1.91-2c-.21-.09-1.35-.38-.46-.66a38.8 38.8 0 0 0 6.53-2.56zM367.63 326.27c-.05 0 0 11.67 0 11.67 0 .42 4.42.1 5.46-.34 5.62-2.38 4.83-10.54-1.54-11.2a15.94 15.94 0 0 0-3.89-.13zm0 25a8.92 8.92 0 0 0 5.59.52c6.38-1.27 7.31-10.78.44-12.33-1.6-.37-6-.4-6-.15v12zm8.95-13.15c3 .82 5.57 2.92 6 5.69 1.51 9-9.34 9.62-16.79 9-2.35-.19-4.59.14-6 .12V352c1.6-.13 3-.53 3-2.45V328c0-1.62-1.44-2.21-2.95-2.22a3.38 3.38 0 0 1 0-.9c8.89.4 19.18-1.67 20.86 5.54 1.23 5.29-3.52 6.92-4.11 7.64zM396.33 343.37c-.58.24-5.26 2.15-6.17 3.92a2.28 2.28 0 0 0-.08 2.36c1.14 2.35 6.23.39 6.25-1.18s0-5.09 0-5.1zm5.77 8.38c.1.26.19.6.19.6a10.26 10.26 0 0 1-1.19.49c-4.1 1.19-4.25-2.53-4.25-2.53s-.16-.53-.64 0c-2.46 2.86-10.68 4.8-10.13-1 .2-2.09 1.58-3.42 3.69-4.61 2.43-1.37 6.17-2.2 6.47-2.94a18.27 18.27 0 0 0 .14-3.78c0-1.46-1.76-1.22-2.36-1.09a4.05 4.05 0 0 0-3.08 2.62c.05 2.91-2.44 4.11-3.79 3.21-2-1.37-.07-4.55 3.22-6a15 15 0 0 1 5.73-1.52c3.39-.18 4.35 1.32 4.35 4.33 0 0-.05 11.43 0 11.45s-.07 1.1 1.66.76zM453.21 343.37c-.58.24-5.25 2.15-6.17 3.92a2.3 2.3 0 0 0-.08 2.36c1.14 2.35 6.23.4 6.25-1.18s0-5.09 0-5.1zm5.77 8.38a5 5 0 0 1 .19.6 9.5 9.5 0 0 1-1.19.49c-4.1 1.19-4.24-2.52-4.24-2.52s-.16-.54-.65 0c-2.46 2.86-10.68 4.81-10.13-1 .2-2.1 1.58-3.42 3.69-4.62 2.43-1.37 6.17-2.19 6.47-2.94a18.24 18.24 0 0 0 .15-3.78c0-1.45-1.77-1.21-2.37-1.08a4 4 0 0 0-3.08 2.61c.05 2.91-2.44 4.11-3.78 3.21-2-1.36-.08-4.54 3.22-6a14.92 14.92 0 0 1 5.73-1.51c3.38-.19 4.34 1.31 4.34 4.32 0 0-.05 11.44 0 11.46s-.07 1.09 1.66.75z" transform="translate(-310.24 -254.9)"/><path class="cls-1" d="M485.71 336.36c-8.54 1.18-6.52 16 .54 14.8 1.41-.23 3.73-2.59 3.69-4s0-7.07-.07-8.36c-.15-1.65-2.45-2.69-4.16-2.45zm7.91-12.77c.06 1.87 0 23.56 0 23.56.2 2.19-.17 2.93 2.35 4.33v.32a40.66 40.66 0 0 0-6 1.4v-2.55c0-1.93-1.27 2.33-6.22 2.55-10.57.49-11-20.08 4.71-17.82 1.27.18 1.55 1 1.4-.46v-5.54s.15-1.31-2.95-2.73c-.14-.5.48-.57.75-.63a30.19 30.19 0 0 0 5.93-2.43zM427 335.12h.06v3a17.35 17.35 0 0 1 3.77-2.07c.87-.33 6.75-1.88 6.88 3.38v9.32a3.59 3.59 0 0 0 3.14 3.74v.5h-9.45a2.13 2.13 0 0 0 0-.5s2.41-.16 2.41-3.49v-8.8c0-3.23-3.51-3.58-6.69.35v8.2c0 1.06.16 3.34 2.7 3.74v.51h-9.5v-.51a3.49 3.49 0 0 0 2.7-3.74v-8.23c-.31-2-2.6-2.48-2.59-2.48a5.38 5.38 0 0 0 0-.54 66.24 66.24 0 0 0 6.6-2.39z" transform="translate(-310.24 -254.9)"/><path class="cls-1" d="M468.05 335.13c-.06.43 0 2.69 0 3.42 5.87-7.61 9.48.7 6 1.65-2.29.63-1.94-1.7-3.88-1.51-.69.07-1.37.64-1.86 2.07a4.39 4.39 0 0 0-.26 1.5c0 3.12-.12 6.82.16 7.89a3.4 3.4 0 0 0 3.36 2.35v.5h-10.45v-.47c.77 0 3-1.1 3-2.82 0-4.81.13-8.09-.22-9.35a3.18 3.18 0 0 0-1.91-2c-.21-.08-1.35-.37-.46-.65a38 38 0 0 0 6.53-2.56zM516.66 334.87c.25-.23 1.44-1.25 1.36-2.35a2.39 2.39 0 0 0-.62-1.52 2.47 2.47 0 0 1-1-2 1.9 1.9 0 0 1 1.78-2 2.39 2.39 0 0 1 2.54 2.65 7.2 7.2 0 0 1-3.5 5.82z" transform="translate(-310.24 -254.9)"/><path d="M353.62 360.46h-43.38v-43.39h43.38zM320.78 328c.92-.58 1-2.15.19-3.49s-2.24-1.95-3.16-1.37-1 2.15-.19 3.5 2.24 1.9 3.16 1.36zm22.22 0c.92.59 2.34 0 3.16-1.36s.73-2.91-.19-3.5-2.34 0-3.16 1.37-.72 2.86.19 3.49zm6.09 2.67c-2.94-1.85-4.81-1.12-7.69-3.13a9.06 9.06 0 0 1-3.56-4.59c-.44-1.09-.63-1.42-1-1.42s-.46 0-.46 1.1v.1c0 1.32-.88 5.78-4.56 5.78-3.39 0-4.52-4.27-4.52-5.86v-.05c0-1.07-.25-1.1-.46-1.1s-.51.33-.95 1.42a9.06 9.06 0 0 1-3.56 4.59c-2.87 2-4.75 1.28-7.69 3.13s-4.51 5.24-3.76 5.69c.54.31 1.18-.61 1.81-1.43 1.26-1.62 3.67-2.93 4.69-2 1.21 1.11-.07 2.86-1.1 5.36a14.55 14.55 0 0 0-.59 6.77c.35 3.81-1.37 5-.36 5.69s2.74-2.39 3.11-6.12c.2-1.9.13-3.8.86-3.8s.84 3.68.58 5.5c-.51 3.53-2.35 5.29-2 8.89.24 2.54 1.81 2.64 1.84.07.05-4.19 4-6.33 3.7-13.67-.17-4.39-.8-7.69 1.49-12.42.41-.86 1.06-2.29 1.58-3.64a16 16 0 0 0 .83 1.88c2.65 4.38 2.66 4.39 1.65 8.35-1.38 5.34 1.26 7.53.78 11-.27 2 1 2.1 1.47 0 .63-2.5-.4-4-.35-6.54 0-1.32.45-3.85 1.27-3.68.51.1.1 1.26 0 2.69-.16 2.15.53 5 1.47 4.77s-.13-1.32.48-4c.36-1.57 1-3.52.62-5.34-.83-3.62 1.17-6.28 1.65-7.15a11 11 0 0 0 .87-2.1c.53 1.36 1.2 2.82 1.62 3.69 2.28 4.73 1.65 8 1.48 12.42-.3 7.34 3.65 9.48 3.7 13.67 0 2.57 1.61 2.47 1.84-.07.32-3.6-1.52-5.36-2-8.89-.26-1.82-.26-5.5.58-5.5s.66 1.9.86 3.8c.37 3.73 2.09 6.79 3.11 6.12s-.71-1.88-.36-5.69a14.55 14.55 0 0 0-.59-6.77c-1-2.5-2.31-4.25-1.1-5.36 1-.92 3.43.39 4.69 2 .63.82 1.27 1.74 1.81 1.43.74-.4-.87-3.8-3.77-5.64zm-17.23-2.43c.93 0 1.68-1.06 1.68-2.37s-.75-2.38-1.68-2.38-1.67 1.07-1.67 2.38.81 2.32 1.68 2.32z" transform="translate(-310.24 -254.9)" fill-rule="evenodd" fill="#8dc63f"/><path class="cls-3" d="M359.65 277.06h1.44c2.19 0 2.41-.22 2.41-2.25V260.3c0-2.07-.22-2.29-2.41-2.29h-1.44v-2.81h14.17c6.14 0 9.14 2 9.14 6.07 0 3-1.3 4.47-5 5.54a8.48 8.48 0 0 1 4 1.74 5.78 5.78 0 0 1 2 4.67 5.94 5.94 0 0 1-2.11 4.88c-1.7 1.3-4 1.78-8.69 1.78h-13.51zm12.54-11.35c2.59 0 3.67-.26 4.55-1.15a3.45 3.45 0 0 0 1-2.7 3.65 3.65 0 0 0-1.15-2.93c-.81-.62-1.92-.88-4-.88h-3.92v7.66zm.56 11.39c2.29 0 3.66-.29 4.51-1a4.28 4.28 0 0 0 1.3-3.33 4 4 0 0 0-1.34-3.22c-1-.77-2.18-1-4.81-1h-3.73v8.58zM403.94 273.7c-.48 2.7-1.15 4-2.74 5.18a9 9 0 0 1-5.55 1.66c-5.4 0-9-3.73-9-9.29s3.66-9.36 9.14-9.36a7.56 7.56 0 0 1 6.25 2.59c1.37 1.67 1.85 3.37 2 7.07h-12.35c.15 2.33.45 3.33 1.15 4.37a3.88 3.88 0 0 0 3.48 1.66 4.86 4.86 0 0 0 3.07-.92 5.44 5.44 0 0 0 1.48-3zm-4.74-4.7c-.4-3.4-1.29-4.62-3.4-4.62s-3.37 1.37-4 4.62zM413.67 275.21c0 1.82.37 2.19 2.11 2.19h1.14v2.48h-11v-2.48h1.11c1.77 0 2.14-.37 2.14-2.19v-15.35c0-1.81-.37-2.18-2.14-2.18h-1.11v-2.48h7.73zM418.63 277.4H420c1.74 0 2.11-.41 2.11-2.19v-8c0-1.78-.37-2.19-2.11-2.19h-1.33v-2.48h7.91v12.69c0 1.78.37 2.19 2.11 2.19h1.11v2.48h-11.17zm8.1-19.76a2.72 2.72 0 0 1-2.7 2.74 2.74 2.74 0 1 1 2.7-2.74zM449 273.7c-.49 2.7-1.15 4-2.74 5.18a9 9 0 0 1-5.55 1.66c-5.4 0-9-3.73-9-9.29s3.66-9.36 9.14-9.36a7.57 7.57 0 0 1 6.25 2.59c1.37 1.67 1.85 3.37 2 7.07h-12.38c.15 2.33.44 3.33 1.15 4.37a3.86 3.86 0 0 0 3.47 1.66 4.87 4.87 0 0 0 3.08-.92 5.38 5.38 0 0 0 1.47-3zm-4.77-4.7c-.41-3.4-1.29-4.62-3.4-4.62s-3.37 1.37-4 4.62zM453.11 266.85c-.44-1.33-1-1.85-2-1.85h-1v-2.48h9.54V265H459c-1 0-1.44.26-1.44.93a4.9 4.9 0 0 0 .33 1.55l2.74 8 3-8.36a3.54 3.54 0 0 0 .22-1.22c0-.63-.52-.93-1.63-.93h-.89v-2.48h8.55V265H469c-1 0-1.67.71-2.22 2.22l-4.44 12.66h-4.7zM488 273.7c-.48 2.7-1.15 4-2.74 5.18a9 9 0 0 1-5.55 1.66c-5.4 0-9-3.73-9-9.29s3.66-9.36 9.14-9.36a7.57 7.57 0 0 1 6.25 2.59c1.37 1.67 1.85 3.37 2 7.07h-12.31c.15 2.33.44 3.33 1.15 4.37a3.87 3.87 0 0 0 3.48 1.66 4.86 4.86 0 0 0 3.07-.92 5.44 5.44 0 0 0 1.48-3zm-4.7-4.7c-.41-3.4-1.29-4.62-3.4-4.62s-3.37 1.37-4 4.62zM499.47 277.4h1.33c1.74 0 2.11-.41 2.11-2.19v-8c0-1.78-.37-2.19-2.11-2.19h-1.33v-2.48h7.92v12.69c0 1.78.37 2.19 2.11 2.19h1.11v2.48h-11.14zm8.1-19.76a2.72 2.72 0 0 1-2.7 2.74 2.74 2.74 0 1 1 2.7-2.74zM512.35 277.4h1.18c1.74 0 2.11-.37 2.11-2.19v-8c0-1.82-.37-2.19-2.11-2.19h-1.18v-2.48h7.73v3c2.29-2.7 3.88-3.59 6.25-3.59a6.11 6.11 0 0 1 4.15 1.52c.92.92 1.25 2.25 1.25 4.88v6.84c0 1.82.37 2.19 2.11 2.19h1v2.48h-10.39v-2.46h.73c1.74 0 2.11-.37 2.11-2.19v-6.84c0-1.52-.11-2-.51-2.59a2.87 2.87 0 0 0-2.22-1 4.28 4.28 0 0 0-3.41 1.81c-.81 1.07-1.07 2-1.07 4.11v4.47c0 1.82.37 2.19 2.11 2.19h.74v2.48h-10.58zM376.52 305.66c-.26 2.89-.74 4.26-1.89 5.59a7.46 7.46 0 0 1-5.88 2.25c-5.4 0-8.92-3.62-8.92-9.21s3.89-9.4 9.59-9.4c4.22 0 7.25 2.26 7.25 5.33a2.87 2.87 0 0 1-2.89 3.15 2.45 2.45 0 0 1-2.66-2.44c0-1.3.67-2 2.11-2.3a5.07 5.07 0 0 0-3.44-1.33c-3.18 0-5 2.44-5 6.84 0 4 1.55 6 4.55 6 2.59 0 3.74-1.22 4.29-4.51zM378.08 288.2h7.51v10.36c2.29-2.67 3.88-3.59 6.21-3.59a6.11 6.11 0 0 1 4.15 1.52c.92.92 1.25 2.25 1.25 4.88v6.84c0 1.82.37 2.19 2.11 2.19h1v2.48H390v-2.48h.74c1.7 0 2.07-.37 2.07-2.19v-6.84c0-1.52-.11-2-.51-2.59a2.73 2.73 0 0 0-2.19-1 4.27 4.27 0 0 0-3.4 1.81c-.81 1-1.07 2.11-1.07 4.25v4.33c0 1.82.37 2.19 2.11 2.19h.74v2.48h-10.41v-2.44h1c1.74 0 2.11-.37 2.11-2.19v-15.35c0-1.81-.37-2.18-2.11-2.18h-1zM401.94 310.4h1.33c1.74 0 2.11-.41 2.11-2.19v-8c0-1.78-.37-2.19-2.11-2.19h-1.33v-2.48h7.92v12.69c0 1.78.37 2.19 2.11 2.19h1.11v2.48h-11.14zm8.1-19.76a2.72 2.72 0 0 1-2.7 2.74 2.74 2.74 0 1 1 2.7-2.74zM422.36 308.21c0 1.82.37 2.19 2.11 2.19h1.15v2.48h-11v-2.48h1.11c1.78 0 2.15-.37 2.15-2.19v-15.35c0-1.81-.37-2.18-2.15-2.18h-1.11v-2.48h7.73zM437.42 288.2h8.11v20c0 1.82.37 2.19 2.1 2.19h1v2.48h-7.58v-3c-1.52 2.67-3 3.55-5.81 3.55-4.81 0-7.59-3.36-7.59-9.25s2.78-9.25 7.55-9.25c2.85 0 4.33.89 5.85 3.52v-5.55c0-1.81-.38-2.18-2.11-2.18h-1.56zm-4.7 15.94c0 4.19 1.37 6.29 4 6.29s4.33-2.22 4.33-6.18-1.56-6.17-4.33-6.17-4 2.11-4 6.06zM462 312.88h-11.7v-2.48h1.18c1.74 0 2.11-.41 2.11-2.19v-8c0-1.82-.37-2.19-2.11-2.19h-1.18v-2.48h7.7v2.59c1.41-2.22 2.7-3.07 4.7-3.07a4.05 4.05 0 0 1 4.37 4 2.92 2.92 0 0 1-3 3.11 2.26 2.26 0 0 1-2.52-2.26c0-1.26.63-2 2.22-2.48a6.17 6.17 0 0 0-1.63-.37 4 4 0 0 0-3 2 8.44 8.44 0 0 0-1.15 4.52v4.69c0 1.78.37 2.19 2.11 2.19h1.9zM485.82 306.7c-.48 2.7-1.15 4-2.74 5.18a9 9 0 0 1-5.55 1.66c-5.4 0-9-3.73-9-9.29s3.66-9.36 9.14-9.36a7.57 7.57 0 0 1 6.25 2.59c1.37 1.67 1.85 3.37 2 7.07h-12.35c.15 2.33.44 3.33 1.15 4.37a3.87 3.87 0 0 0 3.48 1.66 4.86 4.86 0 0 0 3.07-.92 5.4 5.4 0 0 0 1.48-3zm-4.74-4.7c-.41-3.4-1.29-4.62-3.4-4.62s-3.37 1.36-4 4.62zM488 310.4h1.18c1.74 0 2.11-.37 2.11-2.19v-8c0-1.82-.37-2.19-2.11-2.19H488v-2.48h7.73v3c2.3-2.7 3.89-3.59 6.26-3.59a6.06 6.06 0 0 1 4.14 1.52c.92.92 1.26 2.25 1.26 4.88v6.84c0 1.82.37 2.19 2.11 2.19h1v2.48h-10.4v-2.46h.74c1.74 0 2.11-.37 2.11-2.19v-6.84c0-1.52-.11-2-.52-2.59a2.85 2.85 0 0 0-2.22-1 4.27 4.27 0 0 0-3.4 1.81c-.82 1.07-1.08 2-1.08 4.11v4.47c0 1.82.37 2.19 2.11 2.19h.74v2.48H488z" transform="translate(-310.24 -254.9)"/></svg>