<svg id="Layer_2" data-name="Layer 2" xmlns="http://www.w3.org/2000/svg" viewBox="0 0 330.2 257.13"><defs><style>.cls-1{fill:#005288}.cls-2{fill:#231f20}</style></defs><path class="cls-1" d="M.04 81.15H4.2v175.98H.04z"/><path class="cls-2" d="M88.12 88.48c-.41.77-.76 1.23-.7 1.82s.68 1 1 1.62c.27-.7.72-1.22.67-1.77s-.81-1.27-.94-1.67M98.49 88.48c.4.77.75 1.23.7 1.82s-.68 1-1 1.62c-.27-.7-.72-1.22-.67-1.77s.81-1.27.95-1.67M82.15 88a.7.7 0 1 0-.7-.7.7.7 0 0 0 .7.7M82.62 89a.71.71 0 1 0-.71.71.71.71 0 0 0 .71-.71M83 90.73a.7.7 0 0 0-1.4 0 .7.7 0 1 0 1.4 0M86 84.69a.7.7 0 1 0-.7-.7.7.7 0 0 0 .7.7M84.28 85.23a.7.7 0 1 0-.7-.7.7.7 0 0 0 .7.7M82.91 86.43a.7.7 0 1 0-.7-.7.7.7 0 0 0 .7.7M87.86 84.86a.7.7 0 1 0-.71-.7.7.7 0 0 0 .71.7M89.59 85.36a.7.7 0 1 0-.7-.7.7.7 0 0 0 .7.7M91.23 86.13a.7.7 0 1 0-.7-.7.7.7 0 0 0 .7.7M103.73 87.33a.7.7 0 1 0 .7-.7.7.7 0 0 0-.7.7M104.67 88.33a.71.71 0 1 0 .7.7.7.7 0 0 0-.7-.7M104.32 90a.7.7 0 1 0 .71.7.71.71 0 0 0-.71-.7M100.56 84.69a.7.7 0 0 0 0-1.4.7.7 0 1 0 0 1.4M102.3 85.23a.7.7 0 1 0-.7-.7.7.7 0 0 0 .7.7M103.67 86.43a.7.7 0 1 0-.7-.7.7.7 0 0 0 .7.7M98.72 84.86a.7.7 0 1 0-.7-.7.7.7 0 0 0 .7.7M97 85.36a.7.7 0 1 0-.7-.7.7.7 0 0 0 .7.7M94.65 85.43a.7.7 0 1 0 .7-.7.7.7 0 0 0-.7.7M92.09 89.22h.79v-3a3 3 0 0 1-.79-.24zM94.49 86a2.9 2.9 0 0 1-.79.24v3h.79zM92.84 82.66v-1.78a2.21 2.21 0 0 0-1.72 1.78zM93.75 82.66h1.71a2.21 2.21 0 0 0-1.71-1.78zM91.14 83.52a2.2 2.2 0 0 0 4.3 0zM94.5 80.6a2.44 2.44 0 0 1-1-1.55 2.82 2.82 0 0 1 1.59 1v-2.4a2.77 2.77 0 0 1-1.59 1 3.63 3.63 0 0 1 .92-1.73h-2.3a3.54 3.54 0 0 1 .88 1.74 2.77 2.77 0 0 1-1.59-1v2.41a2.82 2.82 0 0 1 1.59-1 2.4 2.4 0 0 1-1 1.55zM94.56 130.9a.87.87 0 1 1 .86-.86.86.86 0 0 1-.86.86m-4.13-1.28a.95.95 0 1 1 .94-.94.95.95 0 0 1-.94.94m-1.43-4.2l-.23-.17a.82.82 0 0 0-1.17 0 3.71 3.71 0 0 0-.51.54l-.24.27.16.13c.45.36.52.76.39 1a.37.37 0 0 1-.24.18 1.19 1.19 0 0 1-.86-.22l-.17-.1-.1.17-.09.13-.12.18a1.74 1.74 0 0 0-.28.8.88.88 0 0 0 0 .17.8.8 0 0 0 .46.5l.11.06.7.42a1.2 1.2 0 0 1-1.2.05 1.81 1.81 0 0 1-1-1.32 3.71 3.71 0 0 1 .66-1.87l.07-.1-.06-.11a3.45 3.45 0 0 1-.31-.6 5.43 5.43 0 0 1 .68.13h.11l.08-.08a3.48 3.48 0 0 1 2.05-1.23 1.47 1.47 0 0 1 1.09.55 1.64 1.64 0 0 1 .4.84c-.12-.09-.26-.19-.39-.3m8.08 3.32a43.87 43.87 0 0 1-7.29-2.61 1.89 1.89 0 0 0-.5-1.49 1.86 1.86 0 0 0-1.39-.68 2 2 0 0 0-.67.13 11.07 11.07 0 0 1-1-1 11.87 11.87 0 0 1-2.16-3.76 12.57 12.57 0 0 1-.64-2.5 2.27 2.27 0 0 1-2.3 1.68c0-.15 0-.51-.12-.55a1.72 1.72 0 0 1-2.16.4 19.88 19.88 0 0 0 .81 2.86 16.86 16.86 0 0 0 3.17 5.32 15.63 15.63 0 0 0 1.41 1.41 2.81 2.81 0 0 0 0 .29 2.24 2.24 0 0 0 1.21 1.69 1.7 1.7 0 0 0 1.8-.21 19.94 19.94 0 0 0 3.91 1.52 17.62 17.62 0 0 0 4.5.71 8 8 0 0 0 3.9-1.39 9.57 9.57 0 0 0 1.47-1.12 1 1 0 0 0 .15-.14 12.37 12.37 0 0 1-4.08-.49M96.46 137.69a.76.76 0 0 0-.59-.47c-.9 0-.55 2.38-1.62 2.38a.64.64 0 0 1-.72-.64c0-.33.23-.43.23-.7s-.21-.36-.45-.36-.44.09-.44.36.24.37.24.7a.66.66 0 0 1-.73.64c-1.07 0-.71-2.38-1.62-2.38a.78.78 0 0 0-.59.47 2.15 2.15 0 0 1-.28-.93 1 1 0 0 1 1-1c1.2 0 .92 1.64 1.5 1.64a.4.4 0 0 0 .44-.4c0-.47-.84-.91-.84-1.58s.61-1.23 1.28-1.77c.67.54 1.29 1.1 1.29 1.77s-.84 1.11-.84 1.58a.39.39 0 0 0 .44.4c.58 0 .3-1.64 1.5-1.64a1 1 0 0 1 1 1 2.15 2.15 0 0 1-.28.93M93.31 141a.59.59 0 1 1 .59-.58.58.58 0 0 1-.59.58m2.39-5.76a1.5 1.5 0 0 0-.44.07v-2.64a18.26 18.26 0 0 1-3.86-.58v3.23a1.45 1.45 0 0 0-.47-.08 1.5 1.5 0 0 0-1.5 1.51 2.73 2.73 0 0 0 .75 1.7c.17-.42.33-.75.56-.75.46 0 .25 2.29 1.59 2.35a1.16 1.16 0 0 0-.07.37 1.05 1.05 0 1 0 2.1 0 1.15 1.15 0 0 0-.06-.37c1.34-.06 1.12-2.35 1.58-2.35.23 0 .37.32.57.75a2.73 2.73 0 0 0 .75-1.7 1.5 1.5 0 0 0-1.5-1.51" transform="translate(-30.04 4.22)"/><path class="cls-2" d="M126.69 138.43a.28.28 0 0 0-.34-.17c-3.1.9-6.93-1.66-10.64-4.13-3.12-2.08-6.07-4-8.59-4a5.19 5.19 0 0 0-2.48.58 4.48 4.48 0 0 0-2 2.28 13.41 13.41 0 0 1-1.23 2.31 3.39 3.39 0 0 0-.74 1.78 1.91 1.91 0 0 0 .64 1.38 6.78 6.78 0 0 0 1.62 1.11l.48.23c.61.3 1 .5 1.06.85a20.56 20.56 0 0 1-4.6 1.3 41.3 41.3 0 0 1-13.19 0 20.26 20.26 0 0 1-4.61-1.31c.05-.51.43-.72 1.1-1l.48-.24a9.76 9.76 0 0 0 1.59-1 1.69 1.69 0 0 0 .64-1.3 3.39 3.39 0 0 0-.74-1.78 13.41 13.41 0 0 1-1.2-2.32 4.47 4.47 0 0 0-2-2.27 5.11 5.11 0 0 0-2.48-.59c-2.52 0-5.47 2-8.59 4-3.71 2.47-7.55 5-10.64 4.13a.28.28 0 0 0-.19.53 12.54 12.54 0 0 1 2.57 1.69c1.11.86 2.17 1.69 3.33 1.69a8.08 8.08 0 0 0 3.71-1.1 40.59 40.59 0 0 0 3.78-2.38c2.45-1.67 5-3.39 7.36-3.59-.25.26-.49.48-.72.68a2.9 2.9 0 0 0-1.32 2.29 5.19 5.19 0 0 0 .71 2.36c.13.25.26.53.41.85a9.56 9.56 0 0 1 .53 1.72c.07.29.15.6.25 1a3.63 3.63 0 0 0 2.19 2.52c2 1 5.55 1.57 10.43 1.57s8.4-.53 10.43-1.57a3.6 3.6 0 0 0 2.19-2.52c.11-.38.18-.69.25-1a8.84 8.84 0 0 1 .54-1.72c.2-.43.38-.78.55-1.1a4 4 0 0 0 .66-2 3 3 0 0 0-1.39-2.35c-.24-.21-.49-.44-.75-.71 2.4.19 4.92 1.91 7.37 3.58a41.53 41.53 0 0 0 3.78 2.39 8.15 8.15 0 0 0 3.71 1.09c1.16 0 2.21-.82 3.33-1.69a12.5 12.5 0 0 1 2.57-1.68.29.29 0 0 0 .15-.36M93.72 114.43v-11.59a8.75 8.75 0 0 1 3.49.89 10.18 10.18 0 0 1 3.2 2.53 12.39 12.39 0 0 1 2.16 3.76 13.34 13.34 0 0 1 .79 4.41zM93.31 98a12.27 12.27 0 0 0-6.87 1.85c-.76-.45-1.09-.9-1.09-1.42 0-1.87 5.28-2 8-2 2.68 0 8 .16 8 2 0 .52-.33 1-1.1 1.42A12.27 12.27 0 0 0 93.31 98m-.17 16.43h-9.87a13.34 13.34 0 0 1 .79-4.41 12 12 0 0 1 2.16-3.76 10.18 10.18 0 0 1 3.2-2.53 8.83 8.83 0 0 1 3.72-.91zm15-.74a4.07 4.07 0 0 1-1.19-1.38c-.36-.76-1.89-3.77-2.14-4.18a1.88 1.88 0 0 1-.3-.9 1.34 1.34 0 0 1 .33-.8c.12-.15.45-.48.58-.67a2.4 2.4 0 0 1 .27-.36 14 14 0 0 0-1.86-2.52 15.35 15.35 0 0 0-3-2.6 2.19 2.19 0 0 0 1.17-1.85 1.7 1.7 0 0 0-.62-1.31 17.26 17.26 0 0 1 2.67-5.41l-2-.84a3.11 3.11 0 0 1 .44 2.24 2.5 2.5 0 0 1-1.1-1.5 9.06 9.06 0 0 1-.74 2.16 1.83 1.83 0 0 1 1.62-.16 2.35 2.35 0 0 1-2.5.84c-.7-.17-1.4-.54-1.38-1.09a.68.68 0 0 1 .71-.68c.43 0 .45.71.32 1 .56-.32 1.15-2 .27-2.23-.7-.19-1.34.76-1.57 1.5-.13-.89-.5-1.74-1.21-1.69-.91.06-.61 1.75-.29 2.18.05-.59.38-.91.65-.89s.56.19.51.73-.82.87-1.7.87a2.17 2.17 0 0 1-2.46-1.88 3.05 3.05 0 0 1 1.77 1.06 10.61 10.61 0 0 1 0-2.7 2.79 2.79 0 0 1-1.74 1.06 3.25 3.25 0 0 1 1.44-1.86H91.5a3.23 3.23 0 0 1 1.44 1.85 2.75 2.75 0 0 1-1.71-1.05 11.09 11.09 0 0 1 0 2.7 3 3 0 0 1 1.74-1 2.17 2.17 0 0 1-2.45 1.87c-.88 0-1.65-.33-1.71-.87s.27-.71.52-.73.59.3.65.89c.31-.43.61-2.12-.3-2.18-.71-.05-1.07.8-1.21 1.69-.23-.74-.86-1.69-1.56-1.5-.89.25-.3 1.91.27 2.23-.14-.29-.11-1 .32-1a.67.67 0 0 1 .7.68c0 .55-.67.92-1.38 1.09a2.35 2.35 0 0 1-2.49-.83 1.81 1.81 0 0 1 1.64.15 8.61 8.61 0 0 1-.73-2.16 2.6 2.6 0 0 1-1.14 1.51 3.15 3.15 0 0 1 .44-2.25l-2 .84a17.18 17.18 0 0 1 2.68 5.43 1.66 1.66 0 0 0-.59 1.29 2.17 2.17 0 0 0 1.18 1.85 15.35 15.35 0 0 0-3 2.6 16.78 16.78 0 0 0-3.17 5.28c.28.28 1.46 1.58 1.74 1.93a3.15 3.15 0 0 1 .8 1.74 2.63 2.63 0 0 0 .7 1.85 3.33 3.33 0 0 1 .39 1.33h9.86v10.74a1.44 1.44 0 0 0-1.13.53c1.14.46 2.22.87 3.31 1.21a2.9 2.9 0 0 1 .6-1.57s-1.43-.14-2.2-.18V115h9.64a13.5 13.5 0 0 1-.79 4.25 12.27 12.27 0 0 1-2.16 3.76 10.18 10.18 0 0 1-3.2 2.53c-.19.09-.19.23-.38.31a2.77 2.77 0 0 0-.48.87 4 4 0 0 0-.22 1c.45.14.7.21 1.13.31 3.39.85 4.22.6 4.41.45a14.83 14.83 0 0 0 2.13-2 17 17 0 0 0 3.17-5.32 18.51 18.51 0 0 0 1.16-6.5v-1" transform="translate(-30.04 4.22)"/><path class="cls-2" d="M99.11 107.55a.26.26 0 0 0-.1.27.29.29 0 0 0 .29.19.63.63 0 0 0-.22.4.61.61 0 0 0 .45-.1.28.28 0 0 0 .1.33.26.26 0 0 0 .26 0 10.49 10.49 0 0 1 1.44 3.91.63.63 0 0 0-.35-.1.59.59 0 0 0 .19.45h-2.41a.29.29 0 0 0-.16-.32.28.28 0 0 0-.33.11.64.64 0 0 0-.19-.42.67.67 0 0 0-.18.42.28.28 0 0 0-.33-.11.32.32 0 0 0-.16.32h-2.06a.59.59 0 0 0 .15-.41.63.63 0 0 0-.41.15v-3.33a.31.31 0 0 0 .33-.16.29.29 0 0 0-.12-.33.64.64 0 0 0 .43-.19.62.62 0 0 0-.43-.18.29.29 0 0 0 .12-.33.31.31 0 0 0-.33-.16v-2.82a.63.63 0 0 0 .35.15.68.68 0 0 0-.09-.4 7.36 7.36 0 0 1 1.85.9 8.79 8.79 0 0 1 1.91 1.76m2.72 5c.17.11.12.38-.1.35a11 11 0 0 0-1.85-4.9.59.59 0 0 0 .41-.5.63.63 0 0 0-.62.27c-.06-.09-.14-.18-.21-.27a9.2 9.2 0 0 0-2.09-2 7.58 7.58 0 0 0-2.32-1.06.19.19 0 0 1 .36-.06c0-.3-.24-.45-.39-.39a.26.26 0 0 0-.17.24.68.68 0 0 0-.44-.24.65.65 0 0 0 .14.47.28.28 0 0 0-.26.12.34.34 0 0 0 .33.45.19.19 0 0 1 .11-.34v3.77a.66.66 0 0 0-.63.16.64.64 0 0 0 .63.17v4.09a.19.19 0 0 1-.1-.35c-.31 0-.44.28-.37.42a.29.29 0 0 0 .31.15.7.7 0 0 0-.16.43.62.62 0 0 0 .43-.16.29.29 0 0 0 .16.31c.13.07.41-.06.41-.37a.19.19 0 0 1-.35-.08h2.84a.63.63 0 0 0 .16.62.62.62 0 0 0 .17-.62h3.17a.19.19 0 0 1-.35.1.34.34 0 0 0 .43.36.28.28 0 0 0 .14-.32.67.67 0 0 0 .44.15.63.63 0 0 0-.18-.42.29.29 0 0 0 .31-.16c.07-.14-.07-.42-.38-.41" transform="translate(-30.04 4.22)"/><path class="cls-2" d="M100.14 111.5a.51.51 0 0 0 .27-.25.3.3 0 0 1-.27 0c.09 0 .21 0 .09-.17s-.19-.19-.3-.06a.69.69 0 0 1-.88-.6.5.5 0 0 0 .26.21l.1.05h.09a.61.61 0 0 0 .22 0 .33.33 0 0 0 .29-.3c0-.31-.27-.46-.6-.74l-.31-.28c-.11-.23 0-.43-.32-.85a1.83 1.83 0 0 0-.1-.36 1 1 0 0 0 .18 1.21c.32.35 1 .69 1 1a.19.19 0 0 1-.18.15h-.16l-.14-.06a1.64 1.64 0 0 1-.24-.19 7.81 7.81 0 0 1-.71-.87 1.25 1.25 0 0 1-.12-1.13c.22-.31-.14-.94-.35-1.1a.53.53 0 0 0 0-.32h-.2c-.05 0-.08-.14-.16-.15s-.13-.1-.14-.15-.11.14-.19.14h-.21a.31.31 0 0 1-.24.09c-.13 0-.12.07-.11.16s0 .15.09.18l.1.12.07-.13a.17.17 0 0 1 .26.06c0 .08 0 .11-.07.12h-.28c-.07 0-.07.1-.07.16s.09.11.24.07.43-.07.43.06c0 .34-.39.33-.48.74a.86.86 0 0 1-.24-.22 1.69 1.69 0 0 0-.29-.36 1.37 1.37 0 0 0-.29-.24c-.14-.08-.14-.15-.14-.29s.05-.23 0-.34a.26.26 0 0 0 0-.11.2.2 0 0 0-.18-.12.2.2 0 0 1 .07.12.31.31 0 0 0 0 .07.08.08 0 0 0 0 .12.13.13 0 0 1 0 .06s-.07-.21-.15-.22h-.06s-.1-.15-.21 0 .07 0 .08 0a.37.37 0 0 0 0 .09c0 .08.06.13.16.13s-.23 0-.23.07v.07s-.07.12 0 .18 0-.08 0-.09 0 0 .08 0c-.1.1-.08.19 0 .22-.06.11-.24.07-.23-.1-.13.22.08.37.27.29v.23s0 .12.1.13 0-.06 0-.07a1.19 1.19 0 0 1 .09.15 1.48 1.48 0 0 0 .68.74 1.76 1.76 0 0 0-.48.46c-.12.11-.28.23-.39.17s-.06-.08-.12-.12a.27.27 0 0 0-.13 0h-.06a.19.19 0 0 0-.22.07.17.17 0 0 1 .15 0v.07s0 .11.25.09a.15.15 0 0 1-.12 0c-.09 0-.14-.1-.21 0a.15.15 0 0 1 0 .06c-.08 0-.16.19-.06.26a.13.13 0 0 1 .06-.13c.06.1.13.15.27-.07s-.1.24 0 .26H96a.19.19 0 0 0 .24.12.2.2 0 0 1-.13-.14h.06c.08-.08 0-.18 0-.23a.14.14 0 0 0 .2.08.18.18 0 0 0 .08-.13.61.61 0 0 1 .37-.08c0-.07.07-.17.22-.21a.22.22 0 0 1 .27 0 .79.79 0 0 1 .16-.27c0 .61.79.59 1 1a1.43 1.43 0 0 0-.67-.13c-.2 0-.54.23-.59.45a.86.86 0 0 0 .35.64h-.53c-.18 0-.21-.31-.43-.22a.11.11 0 0 0-.06 0c-.08 0-.2.1-.18.19a.21.21 0 0 1 .14-.08s0 .08.08.08h.09c0 .09-.28 0-.23.19v.06c0 .01 0 .14.16.1s-.06 0 0-.08 0 0 0 .05a.25.25 0 0 0 0 .07.14.14 0 0 0 .23.09s-.11 0-.12-.07a.13.13 0 0 0 .06 0v-.08c0-.08 0 0 0 0H97a.14.14 0 0 0 .17.07.11.11 0 0 0 .08-.06l.1.06c0-.08 0-.15.22 0l.14-.11s.18.08.25 0 0-.11 0-.2-.13-.17-.16-.34.35-.47.59-.42a1.38 1.38 0 0 0 .76.84c.28.1.39-.21.49-.17a.19.19 0 0 1 0 .09v.32c0 .06-.18 0-.28 0h-.1s-.19.09-.18.18a.35.35 0 0 1 .15-.08.13.13 0 0 0 .22.08s-.19.17-.08.21h.06a.14.14 0 0 0 .1.16v-.14h.06c.08 0 0-.15.13-.19v.22h.28c0 .07.1.11.21.06a.3.3 0 0 1-.1-.07.26.26 0 0 0 .06-.08c.06-.18-.1-.18-.1-.25s.18 0 .18-.21.17-.1.18-.17a.49.49 0 0 1-.23 0zM91.17 116.87H91a.31.31 0 0 0-.37.27c0 .21.13.32.32.34h.1v.14c0 .29-.12.78-.21 1.35l-1.47-2.11a7.32 7.32 0 0 1 1.54-.57c.24 0 .29.11.24.59m-.56 3.66l-2.32-3.32A5.34 5.34 0 0 0 89 117l1.75 2.5-.17 1m-.24 1.5l-3.29-4.72h.3a4.36 4.36 0 0 0 .51 0l2.64 3.78c-.06.37-.12.7-.16 1m-3.72-4.69l3.61 5.19a5.13 5.13 0 0 1-3.61-5.19m5.37-.4h-.17v-.15a.9.9 0 0 0-1-1c-.55 0-1.62.72-3.12.72a4.08 4.08 0 0 1-1.87-.59l-.19.45a.37.37 0 0 0-.36-.37.38.38 0 0 0-.38.37.37.37 0 0 0 .38.37.34.34 0 0 0 .28-.14l-.18.45.19.08a6.13 6.13 0 0 0 4.43 6c.44-.12.89 0 .89.43a.37.37 0 0 1-.41.42c-.18 0-.29-.1-.29-.22s.34-.08.38-.22-.08-.26-.28-.26a.5.5 0 0 0-.52.48.65.65 0 0 0 .68.65.86.86 0 0 0 .93-1c.15 0 .33 0 .37-.18v-.46h-.16l.12-5.2H92c.19 0 .36-.08.37-.28a.3.3 0 0 0-.31-.32M89.39 105.94v-.07h.08c.02 0 0-.07-.06-.1s.06 0 0 0h-.08c-.01 0 0 0 0-.05s0 0 .05 0l.19.09v.06c0 .06 0-.06-.06-.06s0 0 0 .07-.08 0-.1 0 0 .06 0 .09v.1c0 .04-.07.1-.14.06s-.06-.1 0-.15m.21-.47a.1.1 0 0 1-.14 0s0-.07-.06-.16l.2.11m.15.07a.73.73 0 0 0 .23.09c-.11 0-.08.07-.15.07a.12.12 0 0 1-.08-.16m1.64.92c.7 0 1-.23 1-.45 0-.78-1.93-.3-1.93-.77a.29.29 0 0 1 .14-.21c1-.09 1-.76 1.68-.9-.84-.12-1 .54-1.31.57a.44.44 0 0 0 .24-.4c-.17.23-.54.25-.75.51a.18.18 0 0 0 0 .14.36.36 0 0 0-.2.28c0 .74 2 .23 2 .77 0 .19-.34.31-.88.31s-.69-.29-1.44-.09c0-.13.25-.37.15-.48a.19.19 0 0 0 .13-.15.34.34 0 0 0-.15-.07v-.1-.1a.43.43 0 0 0-.17-.12.68.68 0 0 0-.17 0H89.4a.35.35 0 0 0-.14-.06.3.3 0 0 0 0 .21c-.07 0-.14.18-.21.17s.05.07.07.07-.09.23-.15.24l.05.06a1.9 1.9 0 0 0-.1.44 1 1 0 0 0-.16-.12c-.11-.07-.11-.12-.09-.23s.08-.19.09-.28a.51.51 0 0 0 0-.09.14.14 0 0 0-.15-.1.09.09 0 0 1 0 .1v.1c0 .03 0 0 0 0 0-.08 0-.17-.1-.18 0-.07-.07-.13-.18 0s.06 0 .07 0a.36.36 0 0 0 0 .07c0 .07 0 .1.13.11s-.2 0-.21 0 0 0 0 .06-.08.09 0 .15 0-.07 0-.08 0 0 .08 0c-.11.08-.1.16 0 .18a.11.11 0 1 1-.22 0c-.16.18 0 .32.23.23s0 .06 0 .06 0 .1.07.11 0-.07 0-.07.08.13.18.25a2.38 2.38 0 0 1-.43.13 1.05 1.05 0 0 0-.35 0c-.11.06-.38.16-.46 0s0-.08 0-.14a.24.24 0 0 0-.09-.07h-.07a.14.14 0 0 0-.18 0 .13.13 0 0 1 .1.07v.06s0 .09.17.15a.09.09 0 0 1-.1 0c-.07-.06-.08-.14-.16-.09h-.05c-.07 0-.2.09-.14.18a.15.15 0 0 1 .09-.08c0 .09 0 .16.23 0s-.16.15-.07.21.09.17.16.17a.15.15 0 0 1-.06-.15c.09 0 0-.14.09-.17a.12.12 0 0 0 .13.13.13.13 0 0 0 .13-.14.09.09 0 0 1 0 .11.2.2 0 0 0 .08-.08.16.16 0 0 1 0 .18.25.25 0 0 0 .17-.17v.06a.38.38 0 0 0 .21 0 .14.14 0 0 0 0 .11V107s0 .11.06.17c0-.26.17-.16.33-.26a.31.31 0 0 1-.07.09c.06 0 .2-.06.2-.16a.32.32 0 0 1 .1-.08.2.2 0 0 0 .19-.09v.13c.18 0 .36-.18.42-.2.37-.08-.23-.35.53-.3a.49.49 0 0 0 .22-.08c-.06.11-.06.34 0 .36a.39.39 0 0 1 .2.08.4.4 0 0 0-.16 0c-.18.12-.18-.27-.37-.19h-.05c-.08 0-.18.09-.16.17a.22.22 0 0 1 .12-.07s0 .06.07.06h.07c.07 0 0 0 0 0s-.23 0-.19.16a.29.29 0 0 0 0 .06c0 .06 0 .12.14.08s0 0 0-.07a.21.21 0 0 0 0 .06c0 .07.1.14.2.07s-.09 0-.1-.05a.08.08 0 0 0 0-.07h.05a.11.11 0 0 0 .15.06c.12 0 0-.15.12-.17a.08.08 0 0 1 .07 0h.27a.26.26 0 0 0-.09-.29c-.06 0 0-.1-.06-.2a.89.89 0 0 0 .38.1c.27 0 0 0 .13-.11a.39.39 0 0 1 .32 0s.07 0 .06.06 0 .16 0 .23-.14 0-.22 0a.08.08 0 0 0-.08 0 .17.17 0 0 0-.15.15.32.32 0 0 1 .13-.06.1.1 0 0 0 .17.06s-.16.13-.08.17a.12.12 0 0 0 .09.13v-.11c.06 0 0-.12.1-.16s0 .15 0 .17a.11.11 0 0 0 .16 0s-.06 0-.07-.06v-.06c0-.14-.08-.15-.08-.21s.15 0 .15-.17a.11.11 0 0 0-.07-.09h.1c.02 0-.07-.08-.09-.14a.15.15 0 0 0 0-.15s-.16.1-.17 0 0-.07-.11 0-.27-.08-.61-.11M87.64999999999999 108.97s0-.09.07-.09h.08c.01 0 0-.08-.07-.11s.07 0 0-.06-.08 0-.09 0 0 0 0-.05 0 0 .07 0l.22.1v.08c0 .01 0-.07-.05-.08s0 0 0 .09-.1 0-.12 0 0 .07 0 .11v.11a.12.12 0 0 1-.16.08.11.11 0 0 1 0-.17m.25-.56c0 .06-.11.12-.17 0s0-.07-.06-.18a.93.93 0 0 0 .23.13m.17.09a.76.76 0 0 0 .27.1c-.13 0-.09.08-.17.08s-.11-.11-.1-.18m4.29.61c0-.22-.23-.35-.92-.35s-2.24.25-2.24-.13c0-.19.3-.18.66-.16a.35.35 0 0 0 .15.08c.89.26 1.94-.21 2.48 0-.64-.48-1.16 0-1.84-.13.39 0 .53-.11.55-.22-.31.2-.89-.1-1.25.12h-.06c-.49 0-.89 0-.89.31 0 .69 1.85.28 2.43.28s.7.06.7.17-.57.21-.9.21a14.1 14.1 0 0 0-2.93-.08c.07-.15.24-.34.15-.45a.23.23 0 0 0 .14-.18.4.4 0 0 0-.16-.08s0-.08-.05-.12 0-.1 0-.12a1.15 1.15 0 0 0-.2-.13.77.77 0 0 0-.21-.06.44.44 0 0 0-.13 0s-.1 0-.11.05a.33.33 0 0 0-.16-.07.35.35 0 0 0 0 .25c-.08 0-.16.21-.24.19s0 .08.08.09-.1.26-.18.27a.24.24 0 0 0 .12.1v.26h-.15a.09.09 0 0 1-.06 0h.06-.08a3 3 0 0 0-.3-.26c-.14-.08-.14-.14-.13-.28s.07-.24.07-.34a.61.61 0 0 0 0-.11.16.16 0 0 0-.18-.12.13.13 0 0 1 .07.12l-.06.07a.09.09 0 0 0 0 .12.18.18 0 0 1 0 .06s-.06-.21-.13-.21h-.06c0-.09-.1-.16-.21 0a.11.11 0 0 1 .09 0 .19.19 0 0 0 0 .09c0 .08 0 .12.15.12s-.22 0-.23.08v.06c-.06 0-.08.12 0 .19s0-.09 0-.1 0 0 .1 0c-.11.1-.1.2 0 .22a.13.13 0 1 1-.25 0c-.16.22.09.39.28.28a.1.1 0 0 0 .06.08.06.06 0 0 1 .05-.05s0 .12.08.13 0-.08 0-.08.12.15.28.24.22.2.3.11c0 .13.11.29.08.29a1.6 1.6 0 0 0-.48 0c-.13.07-.45.18-.54 0s0-.09-.07-.16a.14.14 0 0 0-.1-.08h-.08a.19.19 0 0 0-.21 0 .17.17 0 0 1 .12.08.13.13 0 0 0 0 .07s0 .11.19.18a.09.09 0 0 1-.11 0c-.08-.06-.09-.15-.19-.09h-.06c-.09 0-.23.1-.17.21a.15.15 0 0 1 .11-.09.21.21 0 0 1 0 .06c0 .1.06.18.28 0s-.19.18-.08.25a.19.19 0 0 0 .17.21.25.25 0 0 1-.06-.18h.06c.1 0 .06-.17.11-.2s0 .16.15.15a.16.16 0 0 0 .16-.17.12.12 0 0 1 .06.13.25.25 0 0 0 .09-.09.18.18 0 0 1 0 .21.34.34 0 0 0 .19-.2.18.18 0 0 1 .05.07.5.5 0 0 0 .24 0 .15.15 0 0 0 0 .12.15.15 0 0 1 0-.06s0 .12.07.19c0-.3.2-.19.39-.31a.17.17 0 0 1-.08.11c.21 0 .55-.28.6-.41a.83.83 0 0 1 .2 0c.6 0 .18-.55 1.15-.37a.58.58 0 0 0 .24-.11c-.07.12-.07.39.06.41a.52.52 0 0 1 .23.1.56.56 0 0 0-.19 0c-.2.14-.21-.31-.43-.23l-.06.05c-.06.05-.2.1-.18.19a.21.21 0 0 1 .14-.08s0 .07.08.07h.08c.08 0 0 0 0 0s-.27 0-.22.18a.17.17 0 0 0 0 .07c0 .07 0 .14.16.1s-.06 0 0-.08a.25.25 0 0 0 0 .07c0 .08.11.17.23.08h-.12.06a.12.12 0 0 0 0-.09h.08a.13.13 0 0 0 .17.07c.14-.05 0-.18.14-.21h.4a.31.31 0 0 0-.11-.34c-.07 0 0-.13-.06-.23a1.13 1.13 0 0 0 .43.1.79.79 0 0 0 .54-.13.54.54 0 0 1 .38 0s.07 0 .06.08 0 .18 0 .26-.16 0-.26 0a.11.11 0 0 0-.09 0 .21.21 0 0 0-.17.18.37.37 0 0 1 .14-.07.12.12 0 0 0 .2.08s-.17.16-.08.19h.06a.14.14 0 0 0 .1.15v-.14h.05c.07 0 0-.13.12-.18s0 .18 0 .2h.06a.13.13 0 0 0 .19.06s-.07 0-.08-.07 0-.06 0-.08-.1-.16-.1-.23.17 0 .17-.2a.11.11 0 0 0-.07-.11h.12c.02 0-.08-.1-.1-.17s.07-.08 0-.18c0 .06-.18.13-.19 0s0-.09-.13-.06a5.36 5.36 0 0 1-.76-.06c.46 0 1.12-.12 1.12-.37M86.86 112s0-.08.06-.08h.09c.02 0 0-.08-.08-.11s.08 0 0-.06-.08 0-.09 0h.07l.21.1v.13c0 .01 0-.07-.06-.07s0 0 0 .07-.1 0-.12 0a.08.08 0 0 0 0 .1v.11c0 .05-.08.11-.15.07a.11.11 0 0 1 0-.16m.24-.53c0 .06-.11.11-.16.05s0-.07-.06-.18a.77.77 0 0 0 .22.13m.16.08a1.35 1.35 0 0 0 .26.11c-.12 0-.09.06-.17.06s-.1-.1-.09-.17m4.8.54c0-.2-.22-.33-.88-.33s-2.67.24-2.67-.13.68-.14 1.18-.12a.26.26 0 0 0 .15.09c.84.24 1.72-.33 2.33-.13-.48-.43-1.1.05-1.74-.08.38 0 .77-.08.79-.18-.29.19-1.11-.13-1.46.09a.12.12 0 0 0-.05.05c-.63 0-1.39-.09-1.39.28 0 .66 2.3.27 2.85.27s.67.06.67.17-.55.19-.86.19a15.65 15.65 0 0 0-3.51 0c0-.15.25-.37.16-.48a.23.23 0 0 0 .14-.17.6.6 0 0 0-.16-.08v-.11-.11a.76.76 0 0 0-.2-.13.71.71 0 0 0-.19-.06h-.24a.23.23 0 0 0-.14-.07.32.32 0 0 0 0 .24c-.08 0-.16.2-.23.18s0 .08.07.08-.09.26-.16.27a.23.23 0 0 0 .07.07 1.62 1.62 0 0 0 0 .2h-.28c-.1 0-.18-.18-.35-.28s-.14-.13-.14-.27.06-.22 0-.32v-.1a.18.18 0 0 0-.18-.12s.07 0 .07.12v.06a.08.08 0 0 0 0 .11s-.06-.2-.14-.21c0-.08-.09-.14-.19 0a.09.09 0 0 1 .08 0 .37.37 0 0 0 0 .09c0 .08.06.11.15.12s-.21 0-.21.07a.11.11 0 0 0 0 .06c-.06 0-.07.11 0 .17s0-.08 0-.09 0 0 .09 0c-.1.09-.08.19.05.21 0 .18-.25.15-.24 0-.14.21.1.37.28.26a.11.11 0 0 0 .06.07.12.12 0 0 0 .09.13v-.08a1.89 1.89 0 0 0 .43.4s.13 0 .15-.08 0 0 .06.07.09.27.06.27a2.53 2.53 0 0 0-.54 0c-.13.07-.43.18-.51 0s0-.08-.07-.14a.12.12 0 0 0-.09-.08h-.07a.18.18 0 0 0-.21 0 .17.17 0 0 1 .12.08.61.61 0 0 0 0 .06s0 .1.18.17a.09.09 0 0 1-.1 0c-.07-.06-.09-.14-.18-.09l.11.15c-.08 0-.21.1-.15.2a.13.13 0 0 1 .1-.09.14.14 0 0 1 0 .06c0 .09.06.17.26 0s-.19.17-.08.23a.18.18 0 0 0 .16.19.24.24 0 0 1-.06-.17h.06c.06 0 0-.15.1-.19s0 .15.15.14a.16.16 0 0 0 .15-.16.12.12 0 0 1 0 .12.2.2 0 0 0 .08-.08.18.18 0 0 1 0 .2.26.26 0 0 0 .18-.2.13.13 0 0 1 0 .07.46.46 0 0 0 .23 0v.06s0 .11.06.18c0-.29.37-.14.55-.26a.23.23 0 0 1-.08.09.38.38 0 0 0 .24-.09l.29-.13a.25.25 0 0 0 0-.08h.11c.19 0 .17-.14.25-.13 1.07.14.46-.46 1.72-.34.06 0 .09 0 .14-.08-.07.13-.07.33.06.35a.49.49 0 0 1 .22.1h-.18c-.19.13-.2-.29-.41-.21h-.06c-.08 0-.19.1-.17.19a.21.21 0 0 1 .13-.08s0 .07.08.07h.08c0 .08-.26 0-.21.18v.06c0 .07.05.13.16.1s-.06 0-.05-.08h.05v.07a.14.14 0 0 0 .23.09s-.11 0-.12-.06h.06a.11.11 0 0 0 0-.08.15.15 0 0 0 .17.07c.13 0 0-.17.13-.2s.06 0 .08 0h.3a.29.29 0 0 0-.1-.32c-.07 0 0-.12-.06-.22a1 1 0 0 0 .41.1.77.77 0 0 0 .51-.12.49.49 0 0 1 .36 0s.07 0 .06.08 0 .17 0 .24-.16 0-.24 0a.11.11 0 0 0-.1 0 .18.18 0 0 0-.16.16s.08-.06.14-.07a.12.12 0 0 0 .2.07s-.17.15-.08.19h.06a.13.13 0 0 0 .09.14.15.15 0 0 1 0-.13c.07 0 0-.13.11-.17v.19a.12.12 0 0 0 .18 0s-.07 0-.08-.06v-.07c0-.16-.09-.17-.09-.23s.16 0 .16-.19a.11.11 0 0 0 .62.3h.12c-.12 0-.08-.09-.1-.16a.2.2 0 0 0 0-.18c0 .06-.17.12-.18 0s0-.09-.13-.06a4.61 4.61 0 0 1-.71-.06c.37 0 1.06-.11 1.06-.35M96.12 116.09zm.17.3s0-.08.07-.08a.08.08 0 0 0 .09-.06s0-.07-.08-.1.08 0 0-.06-.08 0-.09 0 0 0 0-.06a.08.08 0 0 1 .07 0l.21.1v.14c0 .08-.1 0-.13 0a.09.09 0 0 0 0 .11v.1a.1.1 0 0 1-.14.07.11.11 0 0 1 0-.16m.25-.53c0 .06-.1.11-.17 0s0-.07-.06-.17a1 1 0 0 0 .23.12m.16.08a1 1 0 0 0 .25.1c-.12 0-.09.07-.16.07s-.11-.1-.09-.17m4.73 1.22a.2.2 0 0 0 .07-.18c0 .06-.18.13-.19 0s0-.08-.12-.06a5 5 0 0 1-.77 0c.38 0 1.07-.08 1.07-.33s-.22-.33-.88-.33-2.67.24-2.67-.13.68-.13 1.18-.12a.21.21 0 0 0 .14.09c.85.24 1.81-.39 2.33-.24-.67-.23-1.09.16-1.73 0 .38 0 .77-.07.79-.18-.29.19-1.11-.12-1.46.09v.05c-.63 0-1.38-.08-1.38.28 0 .66 2.29.28 2.84.28s.67.06.67.16-.54.2-.85.2a15.68 15.68 0 0 0-3.52 0c0-.14.26-.36.16-.48a.2.2 0 0 0 .14-.17.37.37 0 0 0-.16-.07v-.11-.11a.66.66 0 0 0-.19-.14.8.8 0 0 0-.2 0h-.22a.33.33 0 0 0-.16-.07.37.37 0 0 0 0 .24c-.08 0-.16.19-.23.17s0 .08.07.09-.09.25-.17.26a.41.41 0 0 0 .11.1v.19h-.32c-.11 0-.19-.18-.36-.28s-.14-.14-.14-.28.06-.21 0-.32v-.1a.17.17 0 0 0-.18-.11.15.15 0 0 1 .07.11v.06a.11.11 0 0 0 0 .12s-.07-.19-.14-.2c0-.08-.09-.15-.19 0s.07 0 .08 0a.31.31 0 0 0 0 .08c0 .09 0 .12.14.12s-.21 0-.21.07v.06c0 .01-.07.12 0 .18s0-.08 0-.1 0 0 .09 0c-.1.1-.08.19 0 .22 0 .18-.25.14-.25 0-.13.21.11.37.29.27s0 .07.06.07a.11.11 0 0 0 .08.12v-.07a1.52 1.52 0 0 0 .42.41s.1-.06.16-.1a.13.13 0 0 0 .09.12c0 .13.13.26.1.26a1.24 1.24 0 0 0-.38 0c-.12.07-.42.18-.51 0s0-.08-.06-.15a.14.14 0 0 0-.1-.08h-.07a.17.17 0 0 0-.2 0 .16.16 0 0 1 .11.07v.06s0 .11.18.17a.09.09 0 0 1-.11 0c-.07-.06-.08-.14-.17-.09h-.06c-.08 0-.21.1-.16.2a.13.13 0 0 1 .11-.09v.06c0 .06.06.18.27 0s-.18.17-.08.23a.18.18 0 0 0 .17.19.21.21 0 0 1-.07-.17h.06c.1 0 0-.16.11-.2a.13.13 0 0 0 .14.14.15.15 0 0 0 .15-.16.11.11 0 0 1 0 .13s.07 0 .09-.09a.17.17 0 0 1 0 .2.27.27 0 0 0 .19-.19v.06a.46.46 0 0 0 .23 0 .13.13 0 0 0 0 .11v-.06s0 .11.07.19c0-.3.18-.18.36-.3a.22.22 0 0 1-.08.09c.06 0 .33-.12.33-.22s.1 0 .19-.06.16-.14.24-.13c1.07.15.46-.46 1.72-.33.06 0 .09-.08.14-.12-.07.12-.07.37.06.39a.6.6 0 0 1 .22.09.49.49 0 0 0-.18 0c-.19.13-.2-.29-.41-.22h-.06c-.08 0-.19.1-.17.18a.21.21 0 0 1 .13-.08s0 .07.08.07h.08c.08 0 0 0 0 0s-.26 0-.21.17v.07c0 .06 0 .13.16.09s-.06 0 0-.08 0 .06 0 .07.11.16.22.08.38.41.38.41h.06a.19.19 0 0 0 0-.08h.06a.14.14 0 0 0 .16.07c.14 0 0-.17.14-.2h.38a.29.29 0 0 0-.1-.32c-.07 0 0-.12-.06-.22a1 1 0 0 0 .41.1.84.84 0 0 0 .54-.13.5.5 0 0 1 .37 0s.06 0 0 .07 0 .17 0 .24-.16 0-.25 0a.12.12 0 0 0-.1 0c-.07 0-.17.08-.17.17a.26.26 0 0 1 .14-.07.11.11 0 0 0 .19.07s-.18.15-.09.19a.13.13 0 0 0 .08.14.13.13 0 0 1 0-.13c.07 0 .05-.13.13-.17s-.06.17 0 .19a.12.12 0 0 0 .18.06s-.06 0-.07-.07v-.07c.06-.16-.07-.16-.07-.23s.16 0 .18-.19a.1.1 0 0 0-.06-.09s.08 0 .12-.05c-.12 0-.08-.09-.09-.16M96.65 119c-.07 0-.1-.1-.09-.16a.86.86 0 0 0 .25.1c-.11 0-.09.07-.16.06m-.11.14s0-.06-.05-.06 0 0 0 .07-.09 0-.12 0a.08.08 0 0 0 0 .1v.1c0 .04-.07.11-.14.07a.11.11 0 0 1 0-.15s0-.08.06-.08h.09c.02 0 0-.07-.08-.1s.07 0 0 0h-.08c-.01 0 0 0 0 0h.06l.2.09v.12m-.12-.38c0 .06-.1.11-.16 0s0-.07-.06-.17a.81.81 0 0 0 .22.12m2 0a.2.2 0 0 0 .15.1c.81.23 1.73-.37 2.21-.23-.64-.23-1 .16-1.64 0 .35 0 .73-.07.75-.17-.28.18-1.06-.12-1.39.09-.44 0-.8 0-.8.28 0 .63 1.67.26 2.2.26s.46.06.46.16-.6.18-.9.18a13.66 13.66 0 0 0-2.65-.07c.07-.13.22-.31.13-.41a.18.18 0 0 0 .13-.16.3.3 0 0 0-.15-.07v-.11c0-.03 0-.09-.05-.1a.84.84 0 0 0-.18-.13.88.88 0 0 0-.19 0h-.11c-.01 0-.1 0-.11.05a.3.3 0 0 0-.14-.06.28.28 0 0 0 0 .22c-.08 0-.15.2-.22.18s0 .07.07.08-.09.24-.16.25l.06.07a1.85 1.85 0 0 0 0 .23h-.07a.69.69 0 0 1-.33-.1c-.12-.07-.13-.13-.13-.26s.06-.2 0-.31a.92.92 0 0 0 0-.09c0-.07-.12-.13-.17-.11a.15.15 0 0 1 .07.11v.11s-.06-.2-.13-.2c0-.09-.09-.15-.18 0s.06 0 .07 0a.45.45 0 0 0 0 .08c0 .09.06.11.14.12s-.2 0-.21.07a.15.15 0 0 0 0 .06s-.07.11 0 .17 0-.08 0-.09a.15.15 0 0 0 .09 0s-.09.18 0 .2c0 .17-.24.14-.24 0-.12.2.11.35.28.25s0 .06.06.06 0 .11.08.12 0-.07 0-.07 0-.08.24 0a.2.2 0 0 0 .08.08h.16v.31a1.11 1.11 0 0 0-.36 0c-.11.07-.4.17-.48 0a1 1 0 0 1-.06-.14.17.17 0 0 0-.09-.07h-.07a.17.17 0 0 0-.2 0 .17.17 0 0 1 .11.07.15.15 0 0 0 0 .06s0 .1.17.16a.09.09 0 0 1-.1 0c-.07-.06-.08-.13-.16-.08h-.06c-.07 0-.2.1-.14.19a.14.14 0 0 1 .1-.08c0 .1.06.17.25 0s-.17.17-.07.23a.16.16 0 0 0 .16.18.17.17 0 0 1-.06-.16h.06c.09 0 0-.15.1-.19s0 .15.14.14a.15.15 0 0 0 .14-.15.09.09 0 0 1 .05.12.2.2 0 0 0 .08-.08.16.16 0 0 1 0 .19.27.27 0 0 0 .17-.19v.06a.28.28 0 0 0 .21 0v.05s0 .11.06.17c0-.27.25-.2.42-.32a.13.13 0 0 1-.07.09c.18.12.37-.14.43-.28s0 0 0 .08c.18 0 .16-.13.23-.12.55 0 .13-.46 1-.31a.39.39 0 0 0 .21-.09c-.06.11-.07.35.06.37a.64.64 0 0 1 .21.09.47.47 0 0 0-.17 0c-.19.12-.19-.28-.39-.2h-.06c-.07 0-.18.09-.16.17a.22.22 0 0 1 .12-.07.06.06 0 0 0 .07.07h.08c.08 0 0 0 0 0s-.24 0-.2.16v.06c0 .07 0 .13.16.1s-.07 0-.06-.08h.05a.19.19 0 0 0 0 .07c0 .08.09.16.21.08 0 0-.11 0-.11-.06h.05a.12.12 0 0 0 0-.07.13.13 0 0 0 .16.07c.13 0 0-.17.12-.19a.21.21 0 0 1 .08 0h.29a.28.28 0 0 0-.1-.3c-.07 0 0-.12-.06-.21a.9.9 0 0 0 .39.09 1 1 0 0 0 .56-.11.49.49 0 0 1 .36 0s.06 0 0 .07 0 .17-.07.23-.15 0-.24 0a.11.11 0 0 0-.09 0 .29.29 0 0 0-.2.17.42.42 0 0 1 .15-.07c0 .1.09.14.17.07s-.2.14-.13.18h.06V120.25c.06 0 .07-.13.15-.16 0 .08-.08.16 0 .18s.06.09.16 0-.06 0-.06-.06l.06-.07c.08-.16-.05-.16 0-.22s.15 0 .2-.18 0-.07 0-.09h.13c-.12 0-.06-.09-.06-.15a.18.18 0 0 0 .1-.16s-.19.11-.18 0 0-.08-.11-.06a5.87 5.87 0 0 1-.82-.06c.36 0 1.09-.08 1.09-.31s0-.32-.66-.32-2 .23-2-.12c0-.17.27-.15.6-.13M95.92 122.19s0-.08.06-.08h.07c.01 0-.05-.11-.05-.11s.06 0 0-.06-.07 0-.08 0h.06l.19.09v.11c0 .06 0-.06-.05-.06s0 0 0 .06-.09 0-.11 0 0 .06 0 .09a.14.14 0 0 1 0 .1s-.07.1-.13.07a.11.11 0 0 1 0-.15m.22-.48c0 .05-.1.1-.15.05s0-.07 0-.16a.68.68 0 0 0 .2.11m.14.07a.83.83 0 0 0 .23.1c-.1 0-.08.06-.15.06s-.09-.1-.08-.16m1.51-.07a.18.18 0 0 0 .15.11c.8.23 1.72-.37 2.21-.24-.63-.22-1 .17-1.64 0 .35 0 .73-.07.75-.17-.28.18-1.06-.12-1.39.08 0 0-.05 0-.06.06-.25 0-.46.19-.46.37 0 .53 2.06.11 2.06.29s-.41.27-1 .27a5.5 5.5 0 0 0-2 0c.07-.15.25-.38.17-.48a.19.19 0 0 0 .13-.15.24.24 0 0 0-.15-.06.09.09 0 0 0 0-.11v-.1a.43.43 0 0 0-.17-.12.71.71 0 0 0-.18 0h-.2a.35.35 0 0 0-.14-.06.29.29 0 0 0 0 .21c-.07 0-.14.19-.21.17s.05.07.07.07-.08.23-.15.24a.22.22 0 0 0 .07.07 1.48 1.48 0 0 0 0 .51 6 6 0 0 0-.44-.51.22.22 0 0 1-.13-.24c0-.1.05-.2.05-.29a.62.62 0 0 1 0-.1.17.17 0 0 0-.16-.1.15.15 0 0 1 .07.11.08.08 0 0 0 0 .1.09.09 0 0 1 0 .05s-.06-.18-.13-.18c0-.08-.09-.13-.18 0s.06 0 .07 0 0 .07 0 .08.05.1.13.1-.2 0-.2.06v.06c0 .06-.06.1 0 .16s0-.08 0-.09a.17.17 0 0 0 .09 0s-.07.17 0 .19c0 .17-.23.13-.22 0-.12.19.09.34.25.24s0 0 .06 0a.1.1 0 0 0 .08.11v-.07s0 .26.23.39a.28.28 0 0 0 .29.21c0 .1.1.19.08.19a1.37 1.37 0 0 0-.4 0 .57.57 0 0 1-.26.09.19.19 0 0 1-.2 0v-.14c0-.06-.06-.07-.09-.07h-.07a.14.14 0 0 0-.18 0 .11.11 0 0 1 .1.07v.05s0 .1.16.16-.06 0-.09 0-.08-.13-.17-.08c-.07 0-.19.09-.14.18a.12.12 0 0 1 .1-.08c0 .09 0 .16.23 0s-.16.15-.07.21a.15.15 0 0 0 .15.17.18.18 0 0 1-.06-.15h.06c.06 0 0-.14.09-.17s0 .14.13.13a.14.14 0 0 0 .14-.14.11.11 0 0 1 0 .11.3.3 0 0 0 .07-.08.15.15 0 0 1 0 .18.25.25 0 0 0 .17-.17.38.38 0 0 0 .21 0 .13.13 0 0 0 0 .11v-.06s0 .1.06.17c0-.26.17-.16.33-.27a.18.18 0 0 1-.07.09c.06 0 .24-.08.24-.18a1.2 1.2 0 0 0 .16-.45h.06c.22 0 .32-.17.54-.19a.66.66 0 0 0-.07.32c0 .12.16.25.2.28a.26.26 0 0 0-.16 0c-.18.12-.19-.27-.37-.2h-.05c-.08 0-.18.09-.16.17a.18.18 0 0 1 .11-.07s0 .06.07.06h.08c0 .08-.24 0-.19.16v.06c0 .06 0 .12.15.08s-.06 0-.05-.07c0 .08.1.15.2.08s-.09 0-.1 0 0 0 0-.07a.12.12 0 0 0 .15.06c.13 0 0-.15.12-.18h.28a.26.26 0 0 0-.09-.29c-.06 0 .09-.43-.21-.61.14 0 .59.1.67 0a.73.73 0 0 1 .31.15v.08c0 .02-.1.12-.17.14a1.54 1.54 0 0 0-.12-.13.12.12 0 0 0-.09 0 .2.2 0 0 0-.2.08.33.33 0 0 1 .14 0v.06s-.2 0-.17.06a.2.2 0 0 1 0 .05.13.13 0 0 0 0 .15.14.14 0 0 1 .09-.07s.11-.07.18 0-.14.08-.11.13 0 .12.09.15a.09.09 0 0 1 0-.09H98c.14-.07 0-.16.1-.2s.11.08.22 0a.08.08 0 0 0 0-.1s.06.06.11 0 0-.11 0-.16a.16.16 0 0 0 .15-.07c-.06 0-.22-.09-.12-.12s.16-.13.1-.2-.33-.15-.34-.31h.21c.69 0 1.13-.2 1.12-.42 0-.47-2.1 0-2.1-.3 0-.1.13-.18.29-.24M64.11 85.48a.5.5 0 1 0-.5.5.5.5 0 0 0 .5-.5M63.94 84.13a.51.51 0 1 0-.51.51.51.51 0 0 0 .51-.51M64.22 83.54a.51.51 0 1 0-.5-.5.51.51 0 0 0 .5.5M65.56 83.45a.51.51 0 1 0-.5-.5.51.51 0 0 0 .5.5M71.29 82.52a.5.5 0 0 0 .71 0 .48.48 0 0 0 0-.7.5.5 0 1 0-.71.71M71.18 81.44a.5.5 0 0 0 0-.71.5.5 0 0 0-.71 0 .5.5 0 1 0 .71.71M69.84 81.23a.51.51 0 0 0 0-.72.5.5 0 0 0-.71 0 .51.51 0 0 0 0 .72.51.51 0 0 0 .71 0M68.7 82.07a.5.5 0 0 0 0-.71.51.51 0 0 0-.71 0 .5.5 0 1 0 .71.71M65.49 81.38l.4.88.51-.61h.06a8.13 8.13 0 0 1 .07 1.1.64.64 0 0 0 .64.64.64.64 0 0 0 .3-1.21 5 5 0 0 1-.71-.66v-.08l.85.07-.33-.9-.64.54v-.94l-.88.34.58.69v.07zM71.32 83a1.21 1.21 0 0 1 .28.69 1.45 1.45 0 0 1-.52-.48l.1 1.18a1 1 0 0 1 .42-.42c0 .76-.35 1.08-.6 1.13a.51.51 0 0 1-.61-.39c-.06-.34.23-.56.53-.25.06-.71-.51-.7-.76-.4a1 1 0 0 0-.43-1.49 1.09 1.09 0 0 0 .27 1.48c-.47-.23-.89.17-.47.68.09-.45.48-.35.57 0s-.22.7-.72.85c-.72.22-1-.24-1.13-.63a1 1 0 0 1 .94.2L68.84 84a1.14 1.14 0 0 1-.69.69 3.67 3.67 0 0 1 .22-1l-1.37.58a3.53 3.53 0 0 1 .87.57 1.18 1.18 0 0 1-1 0l.56 1.07c.11-.48.35-.77.53-.8.15.4.3.9-.36 1.24a.84.84 0 0 1-1.12-.11c-.19-.32 0-.67.4-.41-.06-.66-.64-.65-.81-.15 0-.69-.17-1.1-.88-1.29a1 1 0 0 0 .74 1.37c-.39 0-.81.35-.27.82 0-.43.35-.48.55-.2a.5.5 0 0 1-.16.7c-.22.15-.66.14-1.23-.39a1 1 0 0 1 .6 0l-.74-.92a1.36 1.36 0 0 1 0 .71 1.26 1.26 0 0 1-.28-.69l-.57.5a6.53 6.53 0 0 1 1.91 1.88 22.64 22.64 0 0 1 3.08-1.53A24 24 0 0 1 72 85.58a6.6 6.6 0 0 1 0-2.67zM72.91 89.62c-.7.55-1.63 0-2.06-.68a21.67 21.67 0 0 0 2.85-1.31c-.7 1.07-.22 1.55-.79 2m-.15 7.32A1.39 1.39 0 0 1 71 96c-.17-.54-.32-1-.11-1.2.4-.39.52-.69.28-1.17s-.86-.29-1.5-.14c.3-.53.32-.91-.08-.86s-.49.84-.76.74-.11-.54-.11-.78.21-.45.54-.6l2.63-1c.34-.12.57-.19.81.05s.59.38.46.64-.68-.3-1.06 0 0 .5.54.68c-.57.33-1.17.55-1 1.14s.46.64 1 .65c.3 0 .51.43.76.94a1.3 1.3 0 0 1-.64 1.86m-5-5.3c-.71.07-.69-.61-1.93-.91a21.53 21.53 0 0 0 3-1c.19.81-.15 1.82-1 1.9M82.38 115c.2-.54-.79-1.15-.9-1.92a3.83 3.83 0 0 0-.91-2.55c-.86-1-3.88-4.24-4.79-5.26a1.41 1.41 0 0 1 1.32.38c.33.3 1 .92 1.57 1.51a16.36 16.36 0 0 1 3.2-5.15l.55-.59a7.3 7.3 0 0 0-1.78.59c0-.89 0-1.6-.58-2.17.24-1.23 0-2.73-2.74-4.57 1.42.34 2.26 1.62 3.34.64-1 0-1-2.16-4.52-3.93 1.35 0 2.4 2.15 4 .92-1.47-.18-2-2.78-4.6-3.59.91.1 1.86.55 2.65-.52-.92.22-1.46-.63-2.44-.7a3.25 3.25 0 0 0-.12-2.7 3.39 3.39 0 0 0-1.9.68c-.08-.63-.74-.67-1.32-.62 0 .27.16.66-.14.72a25.26 25.26 0 0 0-3.26 1 18.93 18.93 0 0 0-3 1.61c-.25.17-.46-.23-.61-.41-.43.37-.85.84-.54 1.31a3.81 3.81 0 0 0-2 .74 2.39 2.39 0 0 0 1.62 2c-1.63 1.62-.15 3.12-1.59 4.54 2 .07 1.67-2.74 2.69-3.13-.11 2-1.21 2.33-1.21 4.46 0 1.14.68 2.38.07 3.13 1.69-.46 1.25-4.2 2.3-5.33a3.14 3.14 0 0 1-.23 1.91c-.59 1.74.07 4.13-.86 4.9 1.73-.17 1.93-2.94 3.36-4-1.22 2.49-2.48 7.8-4.3 10.46-2.94 4-4.67 8.81-7.37 8.81a2 2 0 0 1-2.09-2.17c0-4.51 7.74-7.61 7.74-12.42a2.85 2.85 0 0 0-2.83-3 4 4 0 0 0-2.37 1 2.59 2.59 0 0 0-.92-.2c-2.73 0-2 4.92-4.39 4.87 1 .53 2.58-.51 3.54-1.88-.41 3.19-5 2.34-4.64 6.17.64-3 7.95-2.56 7.95-7.11a1.77 1.77 0 0 0-.62-1.28 2.81 2.81 0 0 1 1.54-.48 1.72 1.72 0 0 1 1.68 1.94c0 4-7.7 7.42-7.7 12.37a3.52 3.52 0 0 0 .64 2.08 1.28 1.28 0 0 1-1.56-.42c0 1.27 1.78 2.08 2.92 1.44a3.55 3.55 0 0 0 .8.16 2.16 2.16 0 0 1-2.14 1.18c1.89 1.49 5.18-.46 5-2.14 1.5-1.21 2.45-3.27 3.54-4.63-.07.31-.13.63-.18.93a16.31 16.31 0 0 0-2.43 6.42c-.24 2.21-1.36 4.2-2.91 4.2-.34 0-.9-.44-1.17-.22-.48.42 0 .85 0 1.27 0 .63-1.22 1.25-1.22 3.19 0 .88.51 1.93.32 2.51a3.58 3.58 0 0 0 1.43-2.16c.53 2.56-1.1 2.45.07 4.73a.94.94 0 0 1 1.36-.76c.46.32.25.54-.09.88s-.66 2 .9 1.94c-.3-.19-.32-.64.45-.8 1.07-.22 1.39.27 2.53.27.7 0 .9-.92 1.46-.92s.55.44.36.75c.9-.24 1.06-.72 1.06-1.23s-.41-.83-.09-1 1.36 0 .94.87c.54-.09.83-.48.83-1.14s-.75-1-1.45-.92c-.13-.41-.73-.63-1.29-.63-1.26 0-1.07 1-1.94 1-1.38 0-2.72-1.8-2.72-4.83 0-1.63 1.75-2 3-2.57a10.72 10.72 0 0 0 4.71-4.05c1-1.71 1.05-3.58.92-5.8a3.67 3.67 0 0 1 2 3.49 2.14 2.14 0 0 1-1.26 2.16c-.47.21-.63.13-.67.4a.6.6 0 0 0 .37.66c.63.32.5.92.68 1.57a4.93 4.93 0 0 0 1.6 2.41 7.5 7.5 0 0 0 0-1.89c1.34.66.26 3.35 2.87 3.35a.66.66 0 0 1-.08-1.08c.28-.1.63.17 1.13.87s.37.65 1.6.65.68-.43 1.33-.43.6.76.25 1.31a1.42 1.42 0 0 0 1.06-2 1.05 1.05 0 0 1 1.62.75 1.28 1.28 0 0 0-.75-2.18.76.76 0 0 0-.7-.76 10 10 0 0 0-1.23 0c-.45 0-.7.68-1.23.68-1.63 0-4.86-3-4.86-4.24s3.09-2.06 3.09-4c0-2.6-2.55-3.48-4.7-5.14.77-.86 3-1.06 4.26-.45.15-.72.61-.54.78-1.78.46 1.09 0 2 .45 2.5.36-.53 1.29-.45 1.23-1.81.28.85-.36 2.15.28 2.72.11-.7.53-.83.79-.83s.49.19.49.6c0 1-1.27.55-1.27 1.72 0 .49.62.66.62 1a.69.69 0 0 1-1.13.4 1.31 1.31 0 0 0 1.15.85 1.65 1.65 0 0 0 1.4-1c.3.74.07 1.57-.46 1.68.56.28 1.9 0 1.75-1.7.75.12 1.15.63.7 1.55.62-.16 1.19-.46 1.19-1.12s-.55-.66-.31-1.32M132.25 127.45a1.62 1.62 0 1 1 1.62 1.62 1.62 1.62 0 0 1-1.62-1.62m-.56 0a2.18 2.18 0 1 0 2.18-2.18 2.18 2.18 0 0 0-2.18 2.18M124.56 131.39c-.62-.11-1.06-.58-1-1a.71.71 0 0 1 .31-.45 1.32 1.32 0 0 1 1-.18 1.1 1.1 0 0 1 1 .93.45.45 0 0 1 0 .11 1 1 0 0 1-1.27.62m-1-1.94a1.25 1.25 0 0 0-.2 1.9 1.92 1.92 0 0 0 1.09.59 2 2 0 0 0 1.23-.17 1.31 1.31 0 0 0 .69-.91 1.57 1.57 0 0 0-1.43-1.67 1.86 1.86 0 0 0-1.38.26M111.48 100.21a1.11 1.11 0 0 1 .46-.83 1.13 1.13 0 0 1 .82-.25.59.59 0 0 1 .41.21.69.69 0 0 1 .11.46 1.19 1.19 0 0 1-.46.73.91.91 0 0 1-1.23 0 .57.57 0 0 1-.11-.36m.11-1.27a1.45 1.45 0 0 0-.44 2 1.45 1.45 0 0 0 2 .06 1.73 1.73 0 0 0 .66-1.11 1.12 1.12 0 0 0-1-1.29 1.73 1.73 0 0 0-1.24.37M121.85 128.87zm0-.56a.65.65 0 0 1-.48-.23 1.28 1.28 0 0 1-.33-.93 1.29 1.29 0 0 1 .36-.91.67.67 0 0 1 .5-.21c.46 0 .82.53.81 1.16a1.28 1.28 0 0 1-.36.91.7.7 0 0 1-.49.21m-.85-2.47a1.85 1.85 0 0 0-.53 1.3 1.81 1.81 0 0 0 .49 1.28 1.24 1.24 0 0 0 .87.4 1.32 1.32 0 0 0 .9-.37 1.83 1.83 0 0 0 .53-1.3 2 2 0 0 0-.36-1.19 1.23 1.23 0 0 0-1.9-.17M110.81 110.39a1 1 0 0 1-.66-1.25.66.66 0 0 1 .41-.34 1.26 1.26 0 0 1 1 .08 1.34 1.34 0 0 1 .68.71.72.72 0 0 1 0 .54.69.69 0 0 1-.42.35 1.31 1.31 0 0 1-1-.09m-.43-2.12a1.27 1.27 0 0 0-.73.63 1.56 1.56 0 0 0 .92 2 1.84 1.84 0 0 0 1.42.1 1.25 1.25 0 0 0 .73-.64 1.27 1.27 0 0 0 0-1 1.91 1.91 0 0 0-1-1 1.86 1.86 0 0 0-1.4-.11" transform="translate(-30.04 4.22)"/><path class="cls-2" d="M126.14 118.17a1 1 0 0 1-1.36.4 1 1 0 0 1-.07-1.41.9.9 0 1 1 1.43 1m-2.56 4a1 1 0 0 1-1.36.4 1.15 1.15 0 0 1 1.28-1.82 1 1 0 0 1 .08 1.42M114.79 100c.3-.94.87-2.81.87-2.81l1 .38a3.41 3.41 0 0 0-.94.68 1 1 0 0 0 .89-.07l-.39 1a1.29 1.29 0 0 0-.65-.58 1 1 0 0 0 .66 1.28c.6.31 1 .36 1.16.09s-.2-.82-.71-.61c0-.52.24-.79.58-.79a.65.65 0 0 1 .56.58 1.62 1.62 0 0 1 1.12-1.74 1.67 1.67 0 0 1-.56 2 .7.7 0 0 1 .84.12c.19.29.12.68-.34.92a.5.5 0 0 0-.91-.23c-.18.34.1.67.65 1a1 1 0 0 0 1.5-.41 1.15 1.15 0 0 0-.92.18l.66-1.23a1.3 1.3 0 0 0 .41.73 1.57 1.57 0 0 0 0-1.2l1.42.82a1.56 1.56 0 0 0-1 .63 1.28 1.28 0 0 0 .83 0l-.74 1.18a1.16 1.16 0 0 0-.3-.89 1 1 0 0 0 .39 1.51c.55.33 1 .4 1.18.07a.5.5 0 0 0-.65-.67c0-.52.28-.78.62-.76s.47.33.53.67a1.66 1.66 0 0 1 1.41-1.46 1.61 1.61 0 0 1-1 1.84.64.64 0 0 1 .79.19c.17.3.08.69-.4.9a.49.49 0 0 0-.88-.31c-.15.28.09.59.66 1a1 1 0 0 0 1.44-.07 1.34 1.34 0 0 0-.83-.27l.66-.84a1 1 0 0 0 .39.81 3.21 3.21 0 0 0 .11-1.15l.83.66s-1.34 1.43-2 2.17zm10.65 12.09a.67.67 0 0 1 .2-.5.74.74 0 0 1 .51-.18 1.41 1.41 0 0 1 1.27 1.35.73.73 0 0 1-.21.49.74.74 0 0 1-.51.17 1.34 1.34 0 0 1-.89-.43 1.37 1.37 0 0 1-.37-.91m3.89 17.91a1.4 1.4 0 0 1 1.54-1 .74.74 0 0 1 .46.3.75.75 0 0 1 .09.53 1.35 1.35 0 0 1-.58.79 1 1 0 0 1-1.42-.07.76.76 0 0 1-.09-.53m-18.53-27a1.17 1.17 0 0 1-.34.77.57.57 0 0 1-.41.16c-.37 0-.65-.44-.65-.93V103a1 1 0 0 1 .33-.76.56.56 0 0 1 .42-.16.57.57 0 0 1 .4.2 1.13 1.13 0 0 1 .25.8m5.73-11.78c.31-.58 0-1.46 1.06-1.46.52 0 1 .52 1.62.72a6.58 6.58 0 0 0-2.68.74m16.7 14.7c.71 1.94 2.12 2.65 3.19 2.14-2.4-.27-.45-4.38-3.54-4.38a2.57 2.57 0 0 0-.5 0 2.54 2.54 0 0 0-2-.78 3.83 3.83 0 0 0-3.56 3.87c0 5.61 6.52 6.1 6.52 11.06a2.27 2.27 0 0 1-2.32 2.35c-1.1 0-2-1.23-2.9-3.15a23.85 23.85 0 0 0-2.39-3.48 1.75 1.75 0 0 0 1 .34 1.28 1.28 0 0 0 .91-.33 1.25 1.25 0 0 0 .38-.88 1.89 1.89 0 0 0-.53-1.27 1.85 1.85 0 0 0-1.27-.6 1.21 1.21 0 0 0-1.29 1.21v.05a1.63 1.63 0 0 0 .1.57c-1.4-1.83-2.7-3.63-2.7-4.61a4.43 4.43 0 0 1 1.34-2.55l.25.14.2-.22c.26-.29.8-.89 1.93-2.09l.07-.07.27-.29-.7-.56a7.71 7.71 0 0 0 .47-1.38c.22.91.68 1.48 1.32 1.3-.42-.93.43-2.18-.13-4.46.53.88 1.3 1.34 1.85 1.18-1.44-1.28.43-3.06-1.45-5.83a1.12 1.12 0 0 0 1.3-.22c-1.72-.24-.94-2.43-4-3.21.75-.13 1.19-.57 1.08-1-.79.58-1.49-1.06-4.1-1a3.81 3.81 0 0 0-2.09-2.5 3.46 3.46 0 0 1-.18 2l-8.5-8.34c-.25-.24-.39-.29-.46-.21s-.06.24.1.41l7.3 9.16c-.55.19-1.09.42-1.66.62a1 1 0 0 0-.63 1 16.25 16.25 0 0 0-3.14 2c-.45.41-.8.51-.41 1.43.15.35-.31 1.22.74.58.7-.41 2.27-1.28 2.5-.73.12.28-.65.65-1.19.85s-1.11.62-1 .83.5 0 .53.2a.47.47 0 0 0 .41.45c.21 0 .49-.44.66-.29s-.08 1.14-.26 1.4a1.67 1.67 0 0 0 1.39-1.51c0-.61.18-.76.31-.85s.28.66.11 1.11c.43-.1.89-.67.83-1.73a1.14 1.14 0 0 1 .61-.31c.28 0 .83.76 1.61.76a2.39 2.39 0 0 0 2.33-1.71 1.6 1.6 0 0 0-.2-1.21 2 2 0 0 1 .68 1.56c0 2-3.61 3-5.1 4.42l-.16.15-1.7-.65-.11.37s0 .09-.1.32c-.18.59-.55 1.8-.78 2.49l-.09.28.15.09a9.37 9.37 0 0 0-2 4.38 14.69 14.69 0 0 0-1.24-1.13 1.78 1.78 0 0 0 .09-.47 1.67 1.67 0 0 0-.38-1.2 1.18 1.18 0 0 0-.79-.39 1.09 1.09 0 0 0-.82.31.71.71 0 0 0-.15.15l-.18-.14a14.16 14.16 0 0 1-1.68-1.4.85.85 0 0 0-.74-.31h-.75c-.25 0-.4.19-.68.44s-.53.43-1 .76c.21.21.42.43.62.66s.21.25.32.38l.3-.23a1 1 0 0 1 .63-.18 1 1 0 0 1 .73.48c.16.24 1.53 2 2.67 3.29l-.36.14a6 6 0 0 1-2.07.12c-.49 0-.59-.16-.92.36-.13.2-.29.43-.45.63s-.29.43 0 1a46.27 46.27 0 0 1 2.17 4.09 2.34 2.34 0 0 0 1.69 1.49 12.79 12.79 0 0 1 2.3 1.28v-.77a4.53 4.53 0 0 0-1.27-.62c-.29-.11-.36-.23 0-.23a8.64 8.64 0 0 1 2 .61 5.86 5.86 0 0 0-1.35-2 1.88 1.88 0 0 0-1.39 0 .31.31 0 0 1-.32.36.3.3 0 0 1-.3-.4c.07-.23.41-.3.34-.73s-.61-.51-1-.55c-.48-.7-1-1.72-1.29-2.14a.53.53 0 0 1 .07-.79c.41-.34 1.28.18 3 .29l2.14.11c.23 2 1 3.91 3.83 4.61a4.73 4.73 0 0 1 3.25 2.65c-5.58-.1-6.45 2.07-6.45 4.13 0 2.33 2 2.2 2 4 0 1.52-4.69 2.15-6.1 2.36a4 4 0 0 0-2.46 1l-2.21 2.18a3.28 3.28 0 0 0 .89.08l.79-1c.24-.34.4-.62.55-.6s.05.29-.13.66l-.65 1.1c2.75.18 2.93-.84 2.93-1.26s-.68-.7-.28-1 .73-.08 1 .29.42.68 1.18.39c0 0 6-2.48 6.76-2.83s.49-.6.08-.94a2 2 0 0 1-.52-1.6c0-1.82 1.09-2.38 3-2.34a7 7 0 0 0-.06.88c0 2.83 4.28 5.6 5.44 5.6.52 0 1.22-.39 1.26 1.32a17.08 17.08 0 0 1 .06 3.6 2.67 2.67 0 0 1-1.52 2.28c-.87.61-1.69 2.53-2.06 2.94.39.25.81.28 1.13-.65a2.78 2.78 0 0 1 .91-1.51c-.34.85-.59 2.1-.75 2.48 1.09.19 2.87-.81 2.87-1.58s-.61-.71-.61-1.23a.59.59 0 0 1 .61-.48.88.88 0 0 1 .8.51c.49-.25.79-.74.78-1.86v-1.37a1.62 1.62 0 0 0 .1.18 1.25 1.25 0 0 0 1 .55 2 2 0 0 0 2-1.47 1.41 1.41 0 0 0 0-.28 1.22 1.22 0 0 0-1-1.2 1.88 1.88 0 0 0-1.38.3 1.86 1.86 0 0 0-.8 1c-.09-1.54-.2-3-.15-3.58.06-.87.09-1.25-.2-1.38s-.61.35-1 .35a2.81 2.81 0 0 1-1.68-2.38c0-1.23 1.33-2.81 1.26-4.48 0-.52.31-.8.52-.32a7.58 7.58 0 0 0 1.19 2c-.35 2.11 2 4.16 3.88 2.64-.94.14-1.59-.7-2-1.55a2.76 2.76 0 0 0 .51.05h.29a2 2 0 0 0 3.34-1.3 2.14 2.14 0 0 1-1.69.69 3.4 3.4 0 0 0 1.22-2.73c0-5.35-6.48-6-6.48-10.84a3 3 0 0 1 2.67-3 1.67 1.67 0 0 1 1 .32 2.42 2.42 0 0 0-.61 1.86c.17 3.84 6.45 3.65 6.53 5.5.7-2.79-4-1.93-4.15-5.68M55 164.85h12.16c10.89 0 17 5.44 17 16.83 0 11.83-5.2 18.51-17 18.51H55zm4.7 31.38h7.82c3.22 0 11.88-.89 11.88-13.91 0-8.42-3.12-13.51-11.78-13.51h-7.88zM110.06 192.07c-1.13 5.64-5.19 8.71-10.93 8.71-8.17 0-12-5.64-12.28-13.46 0-7.67 5.05-13.32 12-13.32 9.06 0 11.83 8.47 11.58 14.66H91.3c-.14 4.45 2.38 8.41 8 8.41 3.47 0 5.89-1.68 6.64-5zm-4-7.13a7.36 7.36 0 0 0-7.38-7.22c-4.4 0-7 3.31-7.33 7.22zM114 174.6h4.21v3.46h.1c1.38-2.82 4.65-4.06 8.16-4.06 7.87 0 11.79 6.24 11.79 13.47s-3.87 13.31-11.69 13.31c-2.62 0-6.38-1-8.26-4h-.1V210H114zm11.88 3.12c-5.64 0-7.82 4.85-7.82 9.65 0 5 2.28 9.7 8.07 9.7s7.67-4.9 7.67-9.9c-.01-4.8-2.49-9.45-7.93-9.45zM164.6 200.09a5.62 5.62 0 0 1-3 .69c-2.17 0-3.56-1.18-3.56-4a11.33 11.33 0 0 1-9 4c-4.65 0-8.46-2.08-8.46-7.17 0-5.8 4.3-7 8.66-7.88 4.65-.89 8.61-.59 8.61-3.76 0-3.66-3-4.25-5.69-4.25-3.56 0-6.19 1.08-6.39 4.85h-4.2c.24-6.34 5.14-8.57 10.84-8.57 4.6 0 9.6 1 9.6 7v13.2c0 2 0 2.87 1.34 2.87a3.55 3.55 0 0 0 1.28-.25zM157.77 187c-1.63 1.19-4.8 1.24-7.62 1.74s-5.15 1.48-5.15 4.6c0 2.77 2.38 3.76 4.95 3.76 5.55 0 7.82-3.46 7.82-5.79zM167.45 174.6h4v5.4h.1c2-4.11 4.85-6.13 9.41-6v4.46c-6.78 0-9.26 3.86-9.26 10.34v11.39h-4.21zM191.61 174.6h5.1v3.71h-5.1v15.89c0 1.93.54 2.28 3.17 2.28h1.93v3.71h-3.22c-4.35 0-6.09-.89-6.09-5.59v-16.29h-4.35v-3.71h4.35v-7.67h4.21zM200.27 174.6h4v3.76h.1a9.44 9.44 0 0 1 8.23-4.36c3.12 0 6 1.24 7 4.36a9.47 9.47 0 0 1 8-4.36c5.1 0 8.52 2.13 8.52 7.43v18.76H232v-16.78c0-3.17-.84-5.69-4.95-5.69s-6.68 2.57-6.68 6.53v15.94h-4.21v-16.78c0-3.32-1-5.69-4.8-5.69a6.9 6.9 0 0 0-6.83 6.53v15.94h-4.21zM263.13 192.07c-1.14 5.64-5.2 8.71-10.94 8.71-8.17 0-12-5.64-12.28-13.46 0-7.67 5.05-13.32 12-13.32 9.06 0 11.83 8.47 11.58 14.66h-19.12c-.15 4.45 2.37 8.41 8 8.41 3.46 0 5.89-1.68 6.63-5zm-4.06-7.13a7.36 7.36 0 0 0-7.38-7.22c-4.4 0-7 3.31-7.32 7.22zM267 174.6h4v4.06h.1a8.91 8.91 0 0 1 8.32-4.66c6.73 0 8.81 3.87 8.81 9.36v16.83H284v-17.33a4.82 4.82 0 0 0-5.2-5.14c-5.1 0-7.57 3.41-7.57 8v14.46H267zM299 174.6h5.1v3.71H299v15.89c0 1.93.55 2.28 3.17 2.28h1.93v3.71h-3.22c-4.35 0-6.08-.89-6.08-5.59v-16.29h-4.36v-3.71h4.36v-7.67h4.2zM56.08 230.31h-4.31v-3.71h4.31v-3.81c0-4.16 2.47-6.34 7.07-6.34a10.3 10.3 0 0 1 2.73.4v3.66a7.89 7.89 0 0 0-2.38-.35c-2 0-3.22.65-3.22 2.87v3.57h5v3.71h-5v21.88h-4.2zM78.41 226c8.11 0 12.42 5.89 12.42 13.42s-4.31 13.36-12.42 13.36S66 246.89 66 239.42 70.29 226 78.41 226zm0 23.07c4.4 0 8-3.46 8-9.65s-3.56-9.7-8-9.7-8 3.46-8 9.7 3.59 9.65 8 9.65zM94.29 226.6h4v5.4h.1c2-4.11 4.85-6.13 9.41-6v4.46c-6.78 0-9.26 3.86-9.26 10.34v11.39h-4.25zM124.39 216.85h24.4v4h-19.7V232h18.37v4h-18.37v12.23h19.85v4h-24.55zM174.91 252.19h-4.21v-3.47h-.1c-1.38 2.83-4.65 4.06-8.16 4.06-7.88 0-11.79-6.23-11.79-13.46S154.52 226 162.34 226c2.62 0 6.38 1 8.26 4h.1v-13.15h4.21zM163 249.07c5.64 0 7.82-4.85 7.82-9.65 0-5-2.28-9.7-8.07-9.7s-7.67 4.9-7.67 9.9c.03 4.8 2.5 9.45 7.92 9.45zM201.23 252.19h-4v-4.06h-.1a8.89 8.89 0 0 1-8.31 4.65c-6.73 0-8.81-3.86-8.81-9.35V226.6h4.2v17.32a4.82 4.82 0 0 0 5.2 5.15c5.1 0 7.58-3.42 7.58-8V226.6h4.2zM223.86 234.81a6 6 0 0 0-6.33-5.09c-6.09 0-8 4.8-8 10 0 4.71 2.13 9.36 7.47 9.36 4.06 0 6.49-2.37 7-6.24h4.31c-.94 6.24-4.85 9.95-11.29 9.95-7.82 0-12-5.44-12-13.07s4-13.71 12.08-13.71c5.79 0 10.45 2.73 11 8.81zM254.77 252.09a5.67 5.67 0 0 1-3 .69c-2.18 0-3.57-1.18-3.57-4a11.32 11.32 0 0 1-9 4c-4.65 0-8.46-2.08-8.46-7.17 0-5.8 4.31-7 8.66-7.88 4.65-.89 8.61-.59 8.61-3.76 0-3.66-3-4.25-5.69-4.25-3.56 0-6.19 1.08-6.38 4.85h-4.24c.25-6.34 5.15-8.57 10.84-8.57 4.6 0 9.6 1 9.6 7v13.2c0 2 0 2.87 1.34 2.87a3.6 3.6 0 0 0 1.29-.25zM247.94 239c-1.64 1.19-4.81 1.24-7.63 1.74s-5.15 1.48-5.15 4.6c0 2.77 2.38 3.76 5 3.76 5.55 0 7.83-3.46 7.83-5.79zM263.23 226.6h5.1v3.71h-5.1v15.89c0 1.93.54 2.28 3.17 2.28h1.93v3.71h-3.22c-4.35 0-6.09-.89-6.09-5.59v-16.29h-4.35v-3.71H259v-7.67h4.21zM275.87 222h-4.21v-5.14h4.21zm-4.21 4.61h4.21v25.59h-4.21zM292.18 226c8.12 0 12.43 5.89 12.43 13.42s-4.31 13.36-12.43 13.36-12.42-5.89-12.42-13.36 4.3-13.42 12.42-13.42zm0 23.07c4.41 0 8-3.46 8-9.65s-3.56-9.7-8-9.7-8 3.46-8 9.7 3.6 9.65 8 9.65zM308.39 226.6h4v4.06h.1a8.91 8.91 0 0 1 8.32-4.66c6.73 0 8.81 3.87 8.81 9.36v16.83h-4.21v-17.33a4.82 4.82 0 0 0-5.2-5.14c-5.09 0-7.57 3.41-7.57 8v14.46h-4.21z" transform="translate(-30.04 4.22)"/><text transform="translate(0 62.05)" font-size="38" font-family="MyriadPro-Regular,Myriad Pro" fill="#231f20"><tspan letter-spacing="-.03em">F</tspan><tspan x="17.18" y="0">unded </tspan><tspan x="129.16" y="0" letter-spacing="-.01em">b</tspan><tspan x="150.52" y="0">y</tspan></text><path class="cls-1" d="M330.2 0h-6.63 6.63z"/></svg>