<svg xmlns="http://www.w3.org/2000/svg" viewBox="0 0 390.32 103.91"><defs><style>.cls-2{fill:#231f20}.cls-3{fill:#b8292f}</style></defs><g style="isolation:isolate"><g id="Layer_1" data-name="Layer 1"><path class="cls-2" d="M375.13 275.31a6.26 6.26 0 0 1-4.53 1.69h-6.19v-17.2h6.19a6.25 6.25 0 0 1 4.53 1.63c1.93 1.93 1.74 4.29 1.74 6.87s.19 5.08-1.74 7.01zm-2.34-11.47a3 3 0 0 0-2.5-1.06h-2.53V274h2.53a3 3 0 0 0 2.5-1.06c.63-.77.73-2 .73-4.6s-.1-3.73-.73-4.5zM382.51 271.65a2.58 2.58 0 0 0 2.74 2.79 3.47 3.47 0 0 0 2.85-1.18l1.9 1.86a6 6 0 0 1-4.77 2c-3 0-5.81-1.34-5.81-6.43 0-4.09 2.22-6.41 5.47-6.41 3.5 0 5.47 2.56 5.47 6v1.4zm4.48-3.49a2.19 2.19 0 0 0-2.1-1.31 2.17 2.17 0 0 0-2.09 1.31 3.23 3.23 0 0 0-.29 1.35h4.77a3.57 3.57 0 0 0-.28-1.35zM398.43 277H396l-4.63-12.55h3.3l2.56 7.76 2.53-7.76H403zM407.11 271.65a2.59 2.59 0 0 0 2.75 2.79 3.46 3.46 0 0 0 2.84-1.18l1.9 1.86a6 6 0 0 1-4.77 2c-3 0-5.8-1.34-5.8-6.43 0-4.09 2.21-6.41 5.46-6.41 3.5 0 5.47 2.56 5.47 6v1.4zm4.48-3.49a2.33 2.33 0 0 0-4.19 0 3.39 3.39 0 0 0-.29 1.35h4.77a3.39 3.39 0 0 0-.29-1.35zM421.4 277a3.41 3.41 0 0 1-3.66-3.59V259.8h3.13v13.37c0 .74.31 1.13 1.11 1.13h1.2v2.7zM433.88 275.55a5.2 5.2 0 0 1-3.9 1.54 5.13 5.13 0 0 1-3.88-1.54c-1.13-1.18-1.42-2.6-1.42-4.89s.29-3.68 1.42-4.87a5.17 5.17 0 0 1 3.88-1.54 5.24 5.24 0 0 1 3.9 1.54c1.13 1.19 1.42 2.61 1.42 4.87s-.3 3.71-1.42 4.89zm-2.43-7.92a2 2 0 0 0-1.47-.56 1.9 1.9 0 0 0-1.45.56c-.65.65-.72 1.73-.72 3s.07 2.41.72 3.06a1.93 1.93 0 0 0 1.45.56 2 2 0 0 0 1.47-.56c.65-.65.72-1.76.72-3.06s-.07-2.35-.72-3zM447.52 276a4.37 4.37 0 0 1-3.06 1.13 3.7 3.7 0 0 1-3-1.25v5.71h-3.13V264.4h3v1.18a3.78 3.78 0 0 1 3.13-1.33 4.41 4.41 0 0 1 3.06 1.13c1.25 1.26 1.28 3.4 1.28 5.28s-.03 4.05-1.28 5.34zm-4-8.89c-1.88 0-2.12 1.54-2.12 3.59s.24 3.62 2.12 3.62 2.12-1.57 2.12-3.62-.22-3.63-2.1-3.63zM451.74 262.25v-2.55h3.2v2.55zm.05 14.7V264.4h3.13V277zM465.71 277v-7.59a2.09 2.09 0 1 0-4.17 0V277h-3.13v-12.6h3.06v1.15a4.33 4.33 0 0 1 3.13-1.3 4.08 4.08 0 0 1 3 1.11 4.65 4.65 0 0 1 1.27 3.57v8zM476.56 281.7a5.89 5.89 0 0 1-4.56-1.64l1.95-2a3.19 3.19 0 0 0 2.46 1 2.38 2.38 0 0 0 2.53-2.61v-1.27a3.7 3.7 0 0 1-3 1.25 4.17 4.17 0 0 1-3-1.11c-1.18-1.18-1.28-2.79-1.28-5s.1-3.78 1.28-5a4.23 4.23 0 0 1 3-1.11 3.67 3.67 0 0 1 3.06 1.33v-1.14h3v12.09c.07 3.01-2.07 5.21-5.44 5.21zm.31-14.63c-1.86 0-2.05 1.59-2.05 3.25s.19 3.28 2.05 3.28 2.07-1.61 2.07-3.28-.21-3.25-2.07-3.25zM493.64 271.65a2.59 2.59 0 0 0 2.75 2.79 3.45 3.45 0 0 0 2.84-1.18l1.9 1.86a6 6 0 0 1-4.77 2c-3 0-5.8-1.34-5.8-6.43 0-4.09 2.21-6.41 5.47-6.41 3.49 0 5.47 2.56 5.47 6v1.4zm4.48-3.49a2.17 2.17 0 0 0-2.09-1.31 2.19 2.19 0 0 0-2.1 1.31 3.57 3.57 0 0 0-.29 1.35h4.77a3.23 3.23 0 0 0-.29-1.35zM511.13 277l-2.31-3.76-2.29 3.76h-3.76l4.34-6.41-4.17-6.14h3.76l2.12 3.59 2.18-3.64h3.76l-4.17 6.14 4.34 6.41zM521.45 277.09c-2.51 0-5.62-1.34-5.62-6.43s3.11-6.41 5.62-6.41a5.34 5.34 0 0 1 4.14 1.69l-2.12 2.12a2.52 2.52 0 0 0-2-1 2.2 2.2 0 0 0-1.79.82 4.27 4.27 0 0 0-.7 2.77 4.36 4.36 0 0 0 .7 2.8 2.2 2.2 0 0 0 1.79.82 2.52 2.52 0 0 0 2-1l2.12 2.09a5.35 5.35 0 0 1-4.14 1.73zM530.05 271.65a2.59 2.59 0 0 0 2.74 2.79 3.47 3.47 0 0 0 2.85-1.18l1.9 1.86a6 6 0 0 1-4.77 2c-3 0-5.81-1.34-5.81-6.43 0-4.09 2.22-6.41 5.47-6.41 3.5 0 5.47 2.56 5.47 6v1.4zm4.48-3.49a2.19 2.19 0 0 0-2.1-1.31 2.17 2.17 0 0 0-2.09 1.31 3.23 3.23 0 0 0-.29 1.35h4.77a3.57 3.57 0 0 0-.29-1.35zM544.34 277a3.42 3.42 0 0 1-3.67-3.59V259.8h3.14v13.37c0 .74.31 1.13 1.11 1.13h1.2v2.7zM552.17 277a3.41 3.41 0 0 1-3.66-3.59V259.8h3.13v13.37c0 .74.31 1.13 1.11 1.13H554v2.7zM558.31 271.65a2.59 2.59 0 0 0 2.75 2.79 3.46 3.46 0 0 0 2.84-1.18l1.9 1.86a6 6 0 0 1-4.77 2c-3 0-5.8-1.34-5.8-6.43 0-4.09 2.21-6.41 5.47-6.41 3.49 0 5.46 2.56 5.46 6v1.4zm4.48-3.49a2.33 2.33 0 0 0-4.19 0 3.39 3.39 0 0 0-.29 1.35h4.77a3.39 3.39 0 0 0-.29-1.35zM576.36 277v-7.59a2.09 2.09 0 1 0-4.17 0V277h-3.13v-12.6h3.06v1.15a4.31 4.31 0 0 1 3.13-1.3 4.07 4.07 0 0 1 3 1.11 4.62 4.62 0 0 1 1.28 3.57v8zM587.85 277.09c-2.5 0-5.61-1.34-5.61-6.43s3.11-6.41 5.61-6.41a5.34 5.34 0 0 1 4.15 1.69l-2.12 2.12a2.54 2.54 0 0 0-2-1 2.19 2.19 0 0 0-1.78.82 4.27 4.27 0 0 0-.7 2.77 4.36 4.36 0 0 0 .7 2.8 2.19 2.19 0 0 0 1.78.82 2.54 2.54 0 0 0 2-1l2.12 2.09a5.36 5.36 0 0 1-4.15 1.73zM596.45 271.65a2.59 2.59 0 0 0 2.75 2.79 3.45 3.45 0 0 0 2.84-1.18l1.91 1.86a6 6 0 0 1-4.77 2c-3 0-5.81-1.34-5.81-6.43 0-4.09 2.22-6.41 5.47-6.41 3.49 0 5.47 2.56 5.47 6v1.4zm4.49-3.49a2.34 2.34 0 0 0-4.2 0 3.57 3.57 0 0 0-.29 1.35h4.78a3.57 3.57 0 0 0-.29-1.35z" transform="translate(-222.4 -246.42)"/><path class="cls-3" d="M358.37 291.51V289h3.21v2.55zm.05 14.7v-12.55h3.13v12.55zM372.35 306.21v-7.59a2.09 2.09 0 1 0-4.17 0v7.59h-3.13v-12.55h3.06v1.15a4.3 4.3 0 0 1 3.13-1.3 4.07 4.07 0 0 1 3 1.11 4.66 4.66 0 0 1 1.28 3.57v8zM391.26 297.08a2.09 2.09 0 0 0-3.68 1.57v7.56h-3.14v-12.55h3.06v1.2a4.28 4.28 0 0 1 3.16-1.35 3.79 3.79 0 0 1 3 1.18zM397.12 300.91a2.6 2.6 0 0 0 2.74 2.8 3.48 3.48 0 0 0 2.85-1.19l1.9 1.86a6 6 0 0 1-4.77 2c-3 0-5.81-1.35-5.81-6.44 0-4.09 2.22-6.41 5.47-6.41 3.5 0 5.47 2.56 5.47 6v1.4zm4.48-3.49a2.18 2.18 0 0 0-2.1-1.3 2.16 2.16 0 0 0-2.09 1.3 3.23 3.23 0 0 0-.29 1.35h4.77a3.57 3.57 0 0 0-.29-1.35zM412 306.36c-2 0-3.76-.22-5.35-1.81l2-2.05a4.55 4.55 0 0 0 3.35 1.18c1.09 0 2.22-.36 2.22-1.3 0-.63-.34-1.06-1.33-1.16l-2-.19c-2.27-.22-3.66-1.2-3.66-3.52 0-2.6 2.29-4 4.84-4a6.66 6.66 0 0 1 4.79 1.47l-1.92 2a4.33 4.33 0 0 0-2.92-.85c-1.25 0-1.78.58-1.78 1.21 0 .45.19 1 1.3 1.08l2 .19c2.48.24 3.73 1.57 3.73 3.69.04 2.7-2.27 4.06-5.27 4.06zM429.17 305.22a4.39 4.39 0 0 1-3.06 1.14 3.71 3.71 0 0 1-3-1.26v5.71h-3.13v-17.15h3v1.18a3.84 3.84 0 0 1 3.14-1.33 4.39 4.39 0 0 1 3.06 1.14c1.25 1.25 1.27 3.39 1.27 5.27s-.03 4.08-1.28 5.3zm-4-8.89c-1.88 0-2.12 1.54-2.12 3.59s.24 3.62 2.12 3.62 2.12-1.57 2.12-3.62-.22-3.59-2.1-3.59zM442.11 304.81a5.67 5.67 0 0 1-7.79 0c-1.13-1.18-1.42-2.6-1.42-4.89s.29-3.68 1.42-4.86a5.67 5.67 0 0 1 7.79 0c1.13 1.18 1.42 2.6 1.42 4.86s-.29 3.71-1.42 4.89zm-2.44-7.92a2 2 0 0 0-1.47-.56 1.93 1.93 0 0 0-1.44.56c-.65.65-.73 1.73-.73 3s.08 2.41.73 3.06a1.93 1.93 0 0 0 1.44.56 2 2 0 0 0 1.47-.56c.65-.65.73-1.76.73-3.06s-.08-2.35-.73-3zM453.82 306.21v-7.59a2.09 2.09 0 1 0-4.17 0v7.59h-3.13v-12.55h3.06v1.15a4.31 4.31 0 0 1 3.13-1.3 4.07 4.07 0 0 1 3 1.11 4.62 4.62 0 0 1 1.28 3.57v8zM464.45 306.36c-2 0-3.76-.22-5.35-1.81l2-2.05a4.55 4.55 0 0 0 3.35 1.18c1.09 0 2.22-.36 2.22-1.3 0-.63-.34-1.06-1.33-1.16l-2-.19c-2.27-.22-3.66-1.2-3.66-3.52 0-2.6 2.29-4 4.84-4a6.66 6.66 0 0 1 4.79 1.47l-1.92 2a4.33 4.33 0 0 0-2.92-.85c-1.25 0-1.78.58-1.78 1.21 0 .45.19 1 1.3 1.08l2 .19c2.48.24 3.73 1.57 3.73 3.69.05 2.7-2.31 4.06-5.27 4.06zM474.86 300.91a2.59 2.59 0 0 0 2.74 2.8 3.48 3.48 0 0 0 2.85-1.19l1.9 1.86a6 6 0 0 1-4.77 2c-3 0-5.81-1.35-5.81-6.44 0-4.09 2.22-6.41 5.47-6.41 3.49 0 5.47 2.56 5.47 6v1.4zm4.48-3.49a2.35 2.35 0 0 0-4.2 0 3.39 3.39 0 0 0-.28 1.35h4.77a3.57 3.57 0 0 0-.29-1.35zM495.12 306.21a3.41 3.41 0 0 1-3.64-3.59v-6.22h-1.32V294h1.32v-3.71h3.13V294h2.22v2.38h-2.22v6a1 1 0 0 0 1.09 1.13h1.13v2.65zM508.27 304.81a5.2 5.2 0 0 1-3.9 1.55 5.14 5.14 0 0 1-3.88-1.55c-1.13-1.18-1.42-2.6-1.42-4.89s.29-3.68 1.42-4.86a5.14 5.14 0 0 1 3.88-1.55 5.2 5.2 0 0 1 3.9 1.55c1.13 1.18 1.42 2.6 1.42 4.86s-.29 3.71-1.42 4.89zm-2.43-7.92a2 2 0 0 0-1.47-.56 2 2 0 0 0-1.45.56c-.65.65-.72 1.73-.72 3s.07 2.41.72 3.06a2 2 0 0 0 1.45.56 2 2 0 0 0 1.47-.56c.65-.65.72-1.76.72-3.06s-.07-2.35-.72-3zM521.86 292v4.22h6.77v3h-6.77v7h-3.34v-17.16h11.29v3zM542.83 304.4a6.38 6.38 0 0 1-4.85 2 6.32 6.32 0 0 1-4.62-1.88c-1.74-1.74-1.69-3.88-1.69-6.85s0-5.1 1.69-6.84a6.25 6.25 0 0 1 4.62-1.88 6.17 6.17 0 0 1 6.46 5.5h-3.37a2.92 2.92 0 0 0-3.07-2.55 2.76 2.76 0 0 0-2.14.92c-.65.72-.82 1.51-.82 4.81s.17 4.12.82 4.85a2.78 2.78 0 0 0 2.14.89 3.13 3.13 0 0 0 2.39-1 3.29 3.29 0 0 0 .77-2.28v-.65H538v-2.8h6.49v2.51c-.02 2.51-.49 4-1.66 5.25zM560.06 306.21v-10l-3.28 6.51h-2.27l-3.3-6.51v10h-3.34v-17.15h3.3l4.48 9.27 4.45-9.27h3.31v17.15z" transform="translate(-222.4 -246.42)"/><path class="cls-2" d="M579.19 306.21v-1.08a3.82 3.82 0 0 1-3.08 1.2 4.29 4.29 0 0 1-3.21-1.11 4 4 0 0 1-1-2.82c0-2 1.37-3.63 4.28-3.63h3v-.63c0-1.37-.68-2-2.34-2a2.7 2.7 0 0 0-2.41 1l-2-1.95c1.23-1.35 2.44-1.74 4.53-1.74 3.52 0 5.35 1.5 5.35 4.44v8.26zm-.07-5.3h-2.48c-1.14 0-1.76.53-1.76 1.42s.58 1.45 1.8 1.45a2.48 2.48 0 0 0 2-.6 2.06 2.06 0 0 0 .46-1.59zM592.93 306.21v-7.59a2.09 2.09 0 1 0-4.17 0v7.59h-3.13v-12.55h3.06v1.15a4.3 4.3 0 0 1 3.13-1.3 4.07 4.07 0 0 1 3 1.11 4.66 4.66 0 0 1 1.28 3.57v8zM606.37 306.21V305a3.78 3.78 0 0 1-3.11 1.33 4.44 4.44 0 0 1-3.08-1.14c-1.25-1.25-1.28-3.42-1.28-5.3s0-4 1.28-5.27a4.37 4.37 0 0 1 3.06-1.14 3.75 3.75 0 0 1 3.06 1.26v-5.71h3.13v17.15zm-2.21-9.88c-1.88 0-2.12 1.54-2.12 3.59s.24 3.62 2.12 3.62 2.14-1.57 2.14-3.62-.3-3.59-2.14-3.59zM364.69 334.07a5.66 5.66 0 0 1-7.78 0c-1.13-1.18-1.42-2.6-1.42-4.89s.29-3.68 1.42-4.86a5.68 5.68 0 0 1 7.78 0c1.14 1.18 1.43 2.6 1.43 4.86s-.29 3.71-1.43 4.89zm-2.43-7.92a2 2 0 0 0-1.47-.56 1.91 1.91 0 0 0-1.44.56c-.66.65-.73 1.73-.73 3s.07 2.41.73 3.06a1.88 1.88 0 0 0 1.44.56 1.94 1.94 0 0 0 1.47-.56c.65-.65.72-1.75.72-3.06s-.07-2.35-.72-3zM373 335.47a3.4 3.4 0 0 1-3.64-3.59v-6.21h-1.32v-2.39h1.32v-3.71h3.14v3.71h2.21v2.39h-2.21v6c0 .72.33 1.13 1.08 1.13h1.13v2.65zM384.79 335.47v-7.66a2 2 0 1 0-4.07 0v7.66h-3.13v-17.15h3.13v5.76a4.12 4.12 0 0 1 3-1.3c2.75 0 4.19 1.92 4.19 4.57v8.12zM393.76 330.17a2.59 2.59 0 0 0 2.74 2.8 3.5 3.5 0 0 0 2.85-1.18l1.9 1.85a6 6 0 0 1-4.77 2c-3 0-5.81-1.35-5.81-6.44 0-4.09 2.22-6.4 5.47-6.4 3.49 0 5.47 2.55 5.47 6v1.4zm4.48-3.49a2.35 2.35 0 0 0-4.2 0 3.42 3.42 0 0 0-.28 1.35h4.77a3.61 3.61 0 0 0-.29-1.35zM411.32 326.34a2.09 2.09 0 0 0-3.68 1.57v7.56h-3.14v-12.55h3.06v1.2a4.28 4.28 0 0 1 3.16-1.34 3.76 3.76 0 0 1 3 1.18zM428.26 335.47v-7.66a2 2 0 1 0-4.07 0v7.66h-3.13v-17.15h3.13v5.76a4.12 4.12 0 0 1 3-1.3c2.75 0 4.19 1.92 4.19 4.57v8.12zM441.2 335.47v-1.08a3.82 3.82 0 0 1-3.08 1.2 4.29 4.29 0 0 1-3.21-1.11 4 4 0 0 1-1-2.81c0-2 1.37-3.64 4.29-3.64h3v-.63c0-1.37-.68-2-2.34-2a2.69 2.69 0 0 0-2.41 1l-2-1.95c1.23-1.35 2.44-1.73 4.53-1.73 3.52 0 5.35 1.49 5.35 4.43v8.26zm-.07-5.3h-2.48c-1.14 0-1.76.53-1.76 1.42s.58 1.45 1.81 1.45a2.47 2.47 0 0 0 2-.6 2.06 2.06 0 0 0 .46-1.59zM454.45 326.34a2.09 2.09 0 0 0-3.68 1.57v7.56h-3.13v-12.55h3.06v1.2a4.23 4.23 0 0 1 3.15-1.34 3.79 3.79 0 0 1 3 1.18zM473.2 335.47v-7.59a2.09 2.09 0 1 0-4.17-.07v7.66h-3.13v-7.59a2.09 2.09 0 1 0-4.17 0v7.59h-3.13v-12.55h3.06v1.16a4.37 4.37 0 0 1 3.13-1.3 3.89 3.89 0 0 1 3.33 1.59 4.78 4.78 0 0 1 3.76-1.59 4.37 4.37 0 0 1 3.08 1.1 4.76 4.76 0 0 1 1.37 3.57v8zM483.23 325.67v9.8h-3.13v-9.8h-1.31v-2.39h1.31v-1.56a3.42 3.42 0 0 1 3.66-3.6h1.78v2.66h-1.23c-.75 0-1.08.4-1.08 1.13v1.37h2.31v2.39zM495.18 335.47v-1.15a4.33 4.33 0 0 1-3.13 1.3 4.08 4.08 0 0 1-3-1.11 4.65 4.65 0 0 1-1.27-3.57v-8h3.13v7.59a2.09 2.09 0 1 0 4.17 0v-7.59h3.13v12.55zM505.3 335.47a3.4 3.4 0 0 1-3.66-3.59v-13.56h3.13v13.37c0 .75.31 1.13 1.11 1.13h1.2v2.65zM524.41 334.48a4.37 4.37 0 0 1-3.06 1.14 3.71 3.71 0 0 1-3-1.26v5.71h-3.13v-17.15h3v1.18a3.8 3.8 0 0 1 3.13-1.32 4.37 4.37 0 0 1 3.06 1.13c1.25 1.25 1.28 3.39 1.28 5.27s-.03 4.05-1.28 5.3zm-4-8.89c-1.88 0-2.12 1.55-2.12 3.59s.24 3.62 2.12 3.62 2.12-1.57 2.12-3.62-.22-3.59-2.1-3.59zM535.49 326.34a2.09 2.09 0 0 0-3.68 1.57v7.56h-3.14v-12.55h3.06v1.2a4.28 4.28 0 0 1 3.16-1.34 3.76 3.76 0 0 1 3 1.18zM545.83 335.47v-1.08a3.82 3.82 0 0 1-3.08 1.2 4.29 4.29 0 0 1-3.21-1.11 4 4 0 0 1-1-2.81c0-2 1.37-3.64 4.28-3.64h3v-.63c0-1.37-.68-2-2.34-2a2.69 2.69 0 0 0-2.41 1l-2-1.95c1.23-1.35 2.44-1.73 4.53-1.73 3.52 0 5.35 1.49 5.35 4.43v8.26zm-.07-5.3h-2.48c-1.14 0-1.76.53-1.76 1.42s.58 1.45 1.8 1.45a2.48 2.48 0 0 0 2-.6 2.06 2.06 0 0 0 .46-1.59zM557.25 335.62c-2.5 0-5.61-1.35-5.61-6.44s3.11-6.4 5.61-6.4a5.34 5.34 0 0 1 4.15 1.68l-2.12 2.12a2.54 2.54 0 0 0-2-1 2.19 2.19 0 0 0-1.78.82 4.29 4.29 0 0 0-.7 2.77 4.34 4.34 0 0 0 .7 2.8 2.19 2.19 0 0 0 1.78.82 2.54 2.54 0 0 0 2-1l2.12 2.1a5.39 5.39 0 0 1-4.15 1.73zM567.76 335.47a3.4 3.4 0 0 1-3.64-3.59v-6.21h-1.32v-2.39h1.32v-3.71h3.13v3.71h2.22v2.39h-2.22v6a1 1 0 0 0 1.09 1.13h1.13v2.65zM572.27 320.78v-2.56h3.2v2.56zm0 14.69v-12.55h3.14v12.55zM583.93 335.62c-2.51 0-5.62-1.35-5.62-6.44s3.11-6.4 5.62-6.4a5.33 5.33 0 0 1 4.14 1.68l-2.07 2.12a2.52 2.52 0 0 0-2-1 2.16 2.16 0 0 0-1.78.82 4.23 4.23 0 0 0-.7 2.77 4.28 4.28 0 0 0 .7 2.8 2.16 2.16 0 0 0 1.78.82 2.52 2.52 0 0 0 2-1l2.12 2.1a5.39 5.39 0 0 1-4.19 1.73zM592.53 330.17a2.6 2.6 0 0 0 2.75 2.8 3.49 3.49 0 0 0 2.84-1.18l1.9 1.85a6 6 0 0 1-4.77 2c-3 0-5.8-1.35-5.8-6.44 0-4.09 2.21-6.4 5.47-6.4 3.49 0 5.46 2.55 5.46 6v1.4zm4.48-3.49a2.34 2.34 0 0 0-4.19 0 3.43 3.43 0 0 0-.29 1.35h4.77a3.43 3.43 0 0 0-.3-1.35zM607.4 335.62c-2 0-3.76-.22-5.35-1.81l2.05-2.05a4.53 4.53 0 0 0 3.35 1.18c1.08 0 2.21-.36 2.21-1.3 0-.63-.34-1.06-1.32-1.15l-2-.2c-2.26-.21-3.66-1.2-3.66-3.52 0-2.6 2.29-4 4.84-4a6.7 6.7 0 0 1 4.8 1.46l-1.93 2a4.37 4.37 0 0 0-2.92-.85c-1.25 0-1.78.58-1.78 1.21 0 .46.19 1 1.3 1.08l2 .19c2.48.25 3.73 1.57 3.73 3.69 0 2.74-2.36 4.07-5.32 4.07z" transform="translate(-222.4 -246.42)"/><g style="mix-blend-mode:soft-light"><path class="cls-2" d="M248.46 279.36l-4.13-6.4v6.4h-2v-10.43h1.82l4.13 6.39v-6.39h2v10.43zM258.64 279.36l-.61-1.84h-3.71l-.63 1.84h-2.12l3.79-10.43H257l3.8 10.43zm-2.43-7.36l-1.32 3.79h2.59zM265.16 270.75v8.61h-2v-8.61h-2.76v-1.82h7.48v1.82zM269.54 279.36v-10.43h2v10.43zM280.32 278.31a4.06 4.06 0 0 1-5.64 0c-1.06-1.05-1-2.36-1-4.16s0-3.11 1-4.16a4.06 4.06 0 0 1 5.64 0c1.05 1.05 1 2.36 1 4.16s.05 3.11-1 4.16zm-1.51-7.09a1.81 1.81 0 0 0-2.62 0c-.4.44-.5.92-.5 2.93s.1 2.49.5 2.93a1.81 1.81 0 0 0 2.62 0c.39-.44.51-.92.51-2.93s-.12-2.49-.51-2.93zM289.6 279.36l-4.13-6.4v6.4h-2v-10.43h1.81l4.13 6.39v-6.39h2v10.43zM299.78 279.36l-.61-1.84h-3.71l-.63 1.84h-2.12l3.79-10.43h1.6l3.81 10.43zm-2.43-7.36l-1.35 3.8h2.59zM303.19 279.36v-10.43h2v8.62H310v1.81zM247.34 289.49v6.06h9.73v4.29h-9.73v10h-4.82v-24.65h16.25v4.3zM277.41 307.22a9.27 9.27 0 0 1-6.9 2.84 9.09 9.09 0 0 1-6.65-2.7c-2.49-2.5-2.42-5.58-2.42-9.84s-.07-7.34 2.42-9.84a9 9 0 0 1 6.65-2.7 9.36 9.36 0 0 1 7.55 3.15l-3.25 3.26c-1.39-1.39-2.39-2.11-4.3-2.11a4 4 0 0 0-3.08 1.31c-.93 1-1.18 2.19-1.18 6.93s.25 5.92 1.18 7a4 4 0 0 0 3.08 1.28 4.22 4.22 0 0 0 3.29-1.38 5 5 0 0 0 1.08-3.36v-.87h-4.37v-4h9.18v3.53c0 3.52-.55 5.7-2.28 7.5zM301.86 309.85v-14.37l-4.71 9.35h-3.25l-4.75-9.35v14.37h-4.81v-24.66h4.74l6.44 13.34 6.41-13.34h4.75v24.66zM246.9 328.59a4.76 4.76 0 0 1-3.48-1.42c-1.31-1.31-1.27-2.92-1.27-5.15s0-3.85 1.27-5.15a4.76 4.76 0 0 1 3.48-1.42 4.69 4.69 0 0 1 3.59 1.49l-1.67 1.67a2.39 2.39 0 0 0-1.92-.91 2.05 2.05 0 0 0-1.6.67c-.49.55-.63 1.16-.63 3.65s.14 3.1.63 3.64a2.06 2.06 0 0 0 1.6.68 2.42 2.42 0 0 0 1.92-.91l1.67 1.67a4.69 4.69 0 0 1-3.59 1.49zM252.78 328.48v-12.92h8.51v2.25h-6v3h5.1v2.25h-5.1v3.14h6v2.25zM271.39 328.48l-5.12-7.93v7.93h-2.52v-12.92H266l5.12 7.91v-7.91h2.52v12.92zM281.58 317.81v10.67h-2.52v-10.67h-3.37v-2.25H285v2.25zM293.86 328.48l-2.52-5.16h-1.81v5.16H287v-12.92h5.06a3.91 3.91 0 0 1 4.19 3.95 3.49 3.49 0 0 1-2.36 3.4l2.88 5.57zm-2-10.67h-2.37v3.41h2.37a1.71 1.71 0 1 0 0-3.41zM298.87 328.48v-12.92h8.51v2.25h-6v3h5.1v2.25h-5.1v3.14h6v2.25z" transform="translate(-222.4 -246.42)"/></g><path style="mix-blend-mode:soft-light" fill="#f99b1c" d="M87.58 0H0v16.34"/><path style="mix-blend-mode:soft-light" fill="#e01f27" d="M16.34 103.91h87.57V87.58"/><path style="mix-blend-mode:soft-light" fill="#e86025" d="M103.91 87.58V0H87.58"/><path style="mix-blend-mode:soft-light" fill="#b8292f" d="M0 16.34v87.57h16.34"/></g></g></svg>