<svg id="Layer_1_copy_2" data-name="Layer 1 copy 2" xmlns="http://www.w3.org/2000/svg" viewBox="0 0 650 384"><defs><style>.cls-1{fill:#92298f}.cls-2{fill:#707173}.cls-3{fill:#707174}.cls-4{fill:#6f7072}.cls-5{fill:#717274}.cls-8{fill:#727375}.cls-9{fill:#727275}.cls-10{fill:#717275}</style></defs><g id="z7WAOR.tif"><path class="cls-1" d="M515.27 94.49c-1.4 4.52-3 9-4.13 13.55a105.44 105.44 0 0 0-2.62 13.96 21.57 21.57 0 0 0 .87 7.79c1 3.82-.08 7-2.07 10.11-3.85 5.93-7.79 11.8-11.68 17.7a23.37 23.37 0 0 0-1.8 2.94c-1.7 3.75-.87 6.53 2.66 8.74a22.65 22.65 0 0 0 4.38 2.18c4.81 1.69 7.72 8.68 3.32 13.46-.46.49-.94 1-1.37 1.46-2.06 2.49-2.09 3.54-.15 6.07.41.53 1 .95 1.31 1.5.87 1.41 1.66 2.65 0 4.32a5.51 5.51 0 0 0 0 8c3.14 3.19 2.47 6.6 1.85 10.14s-.83 6.8.34 10.22c1.54 4.53 3.81 6.23 8.43 7 5.77.93 11.54.78 17.32.8a120.85 120.85 0 0 1 21.65 1.91 13.62 13.62 0 0 0 4 .12c3.09-.39 3.43 1 4.47 3.59a9.8 9.8 0 0 1 .26 3.44c0 4 .12 8-.09 12-.46 8.7 1.69 17 3.73 25.28.63 2.55.5 2.79-2.22 2.79h-49c-3.37 0-3.41 0-4.4-3.26-2.68-8.73-5.31-17.48-8-26.21a37.59 37.59 0 0 0-1.7-4.58 6.38 6.38 0 0 0-6.65-4c-6 .2-12 .26-18-.08a87.94 87.94 0 0 1-12.1-1.9c-1.9-.38-3.8-1.06-4.61-3.24a6.27 6.27 0 0 1-.09-5.16c.69-1.46 1-3.1 1.54-4.64 1.09-3.07 1.1-5.93-1.9-7.92s-3.5-4.94-2.45-8.1c.4-1.2.79-1.88-.39-2.87-2.65-2.22-2.1-4.88-.82-7.65 3.18-6.94 3.14-7-3.33-11.37-.41-.28-.79-.61-1.2-.9-2.87-2-3.33-3.68-1.42-6.51 4-5.87 7.76-11.87 12.14-17.42 4.82-6.12 4.56-12.92 3.52-19.83a52 52 0 0 1 0-15.76 103.37 103.37 0 0 1 3.24-14.82 65.74 65.74 0 0 1 12.14-22.83z" transform="translate(-97.27 -94.49)"/><path class="cls-2" d="M747.27 394.49c-7.47 3-15.08 2.69-22.63.56-4-1.14-6-4.63-7.14-8.28a31.12 31.12 0 0 1-1.11-8.73c-.11-12.63-.07-25.26 0-37.89 0-1.72-.13-2.85-2.32-2.82a21.94 21.94 0 0 1-4.29-.83c-1.75-.34-3.52-.64-5.28-1a2.49 2.49 0 0 1-2.22-2.8c0-1.66.08-3.32 0-5s.7-2.37 2.35-2.36c3.16 0 6.32-.08 9.47 0 1.76.06 2.36-.6 2.3-2.29-.09-2.32 0-4.65 0-7-.05-2 .39-3.47 2.84-3.77 4-.51 8-1.31 12.08-1.9 1.44-.21 2.06.59 2 2v10c0 2.83.08 2.84 3.1 2.88 2.66 0 5.32-.06 8 .05a6 6 0 0 1 2 .94l-.12 10.09c-.65.35-1.29 1-2 1-2.82.11-5.66.15-8.49 0-1.91-.1-2.59.42-2.57 2.47.09 13 0 26 .07 39 0 3.24 1.3 4.47 4.48 4.55s6.33 0 9.49 0z" transform="translate(-97.27 -94.49)"/><path class="cls-1" d="M465.72 281.37c-1.17-4.24-2.56-8.44-3.33-12.76a122.45 122.45 0 0 1-1.06-12.29c-.09-1.2-.51-1.84-1.81-1.77a27.13 27.13 0 0 1-3-.06c-6.94-.34-13.9-.53-20.82-1.1a21.53 21.53 0 0 1-9.31-2.84c-2.7-1.61-4.74-3.76-5.07-6.9-.29-2.75-.44-5.56.8-8.3 1-2.21 1.24-4.78 2.31-6.95 1.46-3 .55-4.9-1.64-7-4.2-4-4.3-4.76-1.54-9.78.91-1.64 1.13-2.67-.37-4.18-3.5-3.52-3.59-5.84-1-10 .86-1.39 1.72-2.79 2.45-4.26 1.15-2.33.65-3.33-1.76-3.69-2.59-.39-5.22-.61-7.79-1.09-4.3-.81-5.76-3.52-4.23-7.65a10.56 10.56 0 0 1 1.11-2.2c2-3 3.94-6.06 6-9 2.78-3.88 6-7.47 8.45-11.56 2.86-4.83 4.85-10.22 3.92-15.95a32.09 32.09 0 0 1 0-9.18 53.84 53.84 0 0 1 13.61-30.5c2.28-2.54 4.38-5.25 6.56-7.89h-341c-5 2.13-8 6.15-10 11v166a7.67 7.67 0 0 0 .91 3.09c1.27 4 3.68 7.08 7.77 8.25a26.74 26.74 0 0 0 7.32.8q173.94.06 347.87 0h3c2.25-.06 2.23-.11 1.65-2.24zM173.2 261.6a2.62 2.62 0 0 1-2.73 2.86c-5.26.38-10.53.72-15.79 1.12-1.63.12-3.25.56-4.87.53-8.51-.12-17-.13-24.63-5-4.22-2.69-6.37-6.62-7.74-11a30.64 30.64 0 0 1-1.12-8.77c-.13-10.31 0-20.63 0-30.95v-33.45c0-3.93.4-4.3 4.2-4.35q5-.06 10 0c2.38 0 3.37.81 3.7 3a23.88 23.88 0 0 1 0 3.49v59.41c0 1.17.09 2.34 0 3.5-.45 4.92 3.81 8.83 8.59 8.67 8-.26 16-.07 24-.07a27.1 27.1 0 0 1 3 0 3.6 3.6 0 0 1 3.43 3.53c.06 2.48-.03 4.98-.04 7.48zm63-21.44c-1.45 13.67-10.4 24.14-25 25.48a38.17 38.17 0 0 1-15-1.13c-10.88-3.32-16.77-11-19-21.85-1.43-6.91-1.23-13.9-.74-20.82a33.17 33.17 0 0 1 5-16.23c5.25-8 12.91-11.48 22.07-12a50.18 50.18 0 0 1 10.83.69c12.24 1.93 21.93 14.35 21.85 26.91v8.5h-.07a101.91 101.91 0 0 1 .07 10.45zm51.26 24.3l-7.8 1a36.23 36.23 0 0 1-6.33.77c-5.23-.26-10.51-.58-15.34-2.91-4.54-2.19-8.38-5.22-10.76-9.84a38.53 38.53 0 0 1-4.19-13 90.54 90.54 0 0 1-.53-15.33 50.56 50.56 0 0 1 2-13.58c3.42-10.39 11.71-17.19 23.06-18a65.37 65.37 0 0 1 17.81.89c4.21.86 4.86 1.47 4.89 5.84v5.5c0 1.83-1 2.77-2.79 2.65-2.46-.16-4.92-.46-7.38-.63-3.93-.28-7.79-.58-11.77.4-5 1.22-7.07 4.68-8 9-.84 4-.95 8.17-1.37 12.26.15 5.17.41 10.25 2.21 15.14 1.54 4.19 4.94 6.9 9.29 6.83 5.27-.07 10.58.67 15.83-.79 2.67-.75 3.87.47 3.94 3.42.06 2.33 0 4.67 0 7a2.87 2.87 0 0 1-2.76 3.38zm64.72-4.76c0 4.64-.94 5.58-5.4 5.64h-5.49c-2.31 0-4.81.21-5.2-3.13 0-.29-1.12-.78-1.54-.65a33.68 33.68 0 0 0-3.56 1.66 29.69 29.69 0 0 1-20.06 2c-6.62-1.6-11.34-5.61-13.12-12.56-1.64-6.36-1.94-12.61 1.26-18.56a17.7 17.7 0 0 1 9.8-8.6c6.61-2.39 13.44-3 20.39-2.93 6.24 0 6.14 0 6-6-.13-5.71-3.88-9.29-9.35-9.09-5.78.2-11.58-.56-17.33.78a30.32 30.32 0 0 1-5 .21c-1.63.09-2.48-.47-2.43-2.26.08-2.66 0-5.32 0-8a2.5 2.5 0 0 1 2.28-2.76 82.66 82.66 0 0 1 9.18-1.57c7.9-.56 15.87-1.36 23.63 1.07 8.57 2.69 14 8 15.24 17.4a103.06 103.06 0 0 1 .65 11.34c.11 5 0 10 0 15 .07 7.02.09 14.01.06 21.01zm24.09-42.14v42.91c0 4.22-.57 4.77-4.85 4.86-2.66.06-5.32.09-8 0s-3.88-1.37-4.09-3.92c-.06-.83 0-1.67 0-2.5v-82.84a30 30 0 0 1 0-3 3.53 3.53 0 0 1 3.48-3.47c3.65-.13 7.32-.08 11 0a2.38 2.38 0 0 1 2.45 2.56c.06 1.16 0 2.33 0 3.49z" transform="translate(-97.27 -94.49)"/><path class="cls-2" d="M479.27 360.2v-30.49c0-3.93.38-4.27 4.23-4.32 2.84 0 5.67.07 8.5 0 2.11-.07 3.63.21 3.35 2.92-.1 1 .68 1.48 1.62.81 5.95-4.27 12.68-5.08 19.74-4.66 3.56.22 6.9 1.09 9.45 3.6 1.51 1.5 2.74 1.32 4.25.41 7.48-4.51 15.79-4.77 24-3.76 6.26.76 10.77 4.85 12.73 11a39.16 39.16 0 0 1 2 11.05c.23 14.83.12 29.66.09 44.49 0 3.86-.43 4.26-4.26 4.31q-4.5.06-9 0c-2.21 0-3.32-1-3.63-3.07a25.52 25.52 0 0 1 0-3.5c0-13.32 0-26.65-.05-40 0-2.1-.68-4.18-.89-6.28-.3-3-2.57-3.75-4.82-4.06a22.92 22.92 0 0 0-11.16 1.35c-3 1.11-3.1 1.34-3.1 4.73 0 14.66 0 29.33.07 44 0 7.07.23 6.92-6.77 6.81h-4.5c-4.83 0-4.88-.07-4.89-5.12v-19.49c0-6.5.08-13-.05-19.5a47.82 47.82 0 0 0-.91-7.8c-.59-3.13-2.57-4.72-5.76-5.09-4.51-.53-8.36 1.41-12.09 3.46-.73.4-1.12 1.93-1.17 3-.15 3-.05 6-.05 9v35a25.53 25.53 0 0 1 0 3.5c-.3 2.15-1.38 3.05-3.59 3.08-3.16 0-6.33.06-9.49 0s-3.79-.64-3.8-3.79c-.08-10.59-.05-21.09-.05-31.59z" transform="translate(-97.27 -94.49)"/><path class="cls-3" d="M174.27 370.42v20c0 3.34-.32 3.56-3.52 4.12a142.69 142.69 0 0 1-24.6 2 33.38 33.38 0 0 1-21.77-7.8c-5.31-4.35-8.52-10.37-10.09-17.09a67.52 67.52 0 0 1-2-16.59c.08-4.83-.16-9.67 0-14.49.36-8 1.42-15.94 5.39-23.2 4.69-8.58 12.08-13.08 21.42-14.95a46.88 46.88 0 0 1 17.63-.12c4.2.75 8.52.82 12.78 1.18 3.52.29 4.53 1.36 4.59 5 0 1.84.06 3.67 0 5.5-.09 3-.57 3.59-3.43 3.52s-5.9-.58-8.86-.66c-6.42-.16-12.84-1-19.26.44s-9.51 6-11.27 11.7a30.1 30.1 0 0 0-1.12 8.26c-.12 8.33 0 16.66 0 25a22.77 22.77 0 0 0 4.64 13.72 13 13 0 0 0 10.4 5.52c2.82.14 5.66.05 8.49 0 3-.08 3.38-.41 3.4-3.5v-25-3.5a2.49 2.49 0 0 1 2.69-2.85c3.66-.07 7.33-.16 11 0 2.54.13 3.34 1.19 3.35 3.82.17 6.64.14 13.3.14 19.97z" transform="translate(-97.27 -94.49)"/><path class="cls-2" d="M613.54 365.6c-6.33 0-12.66.06-19 0-1.75 0-2.28.53-2.29 2.26a13.82 13.82 0 0 0 9.49 13.53 24.79 24.79 0 0 0 12.23.85 100.46 100.46 0 0 1 10.33-.75c1.49-.1 3 0 4.46-.25 2.82-.43 4.21.29 4.39 2.77a52.6 52.6 0 0 1 0 7 3.54 3.54 0 0 1-3 3.47c-2.74.5-5.55.58-8.27 1.13-5.24 1.08-10.52.9-15.8.93a32.5 32.5 0 0 1-19.75-6.3c-5.86-4.24-8.68-10.25-9.89-16.93a69.28 69.28 0 0 1-.95-15.76 57.31 57.31 0 0 1 2.59-15.88c3.32-9.74 13.36-17.1 23.59-17.16 4.78 0 9.58-.56 14.29 1 9.67 3.2 15.59 9.82 18.31 19.49 1.74 6.19.86 12.51 1.06 18.78.05 1.66-1 1.86-2.29 1.85q-9.75-.05-19.5-.03zm-7.75-11.14c2.65 0 5.3.06 8 0 1.77-.06 3.53-.35 5.29-.54-.26-1.58-.46-3.18-.78-4.76-.88-4.45-3.2-8-7.49-9.59-9.66-3.59-17.1 1.68-18.46 12.48-.25 2.06.68 2.53 2.56 2.47 3.59-.15 7.23-.07 10.88-.06zM342.26 365.6h-19c-1.46 0-2 .45-2.09 2-.15 6.54 4.55 13.21 10.64 14.1 4.45.65 8.7 1.05 13.14.05 2.22-.5 4.64-.14 7-.22a58.8 58.8 0 0 0 5.94-.34c2.69-.37 3.39-.08 3.49 2.32.1 2.66 0 5.32 0 8a2.7 2.7 0 0 1-2.54 3.05c-1.61.25-3.19.72-4.8.91-7.4.87-14.87 1.79-22.27 1-12-1.31-21.68-6.13-25.85-19.86a36.23 36.23 0 0 1-1.51-8.65 131.34 131.34 0 0 1 0-15c.43-6.78 2.25-13.15 6.55-18.68a24.73 24.73 0 0 1 16.58-9.51 42.82 42.82 0 0 1 15.76.58c9.41 2.23 15.24 8.19 18.69 16.68 2.85 7 2.5 14.54 2.28 22-.05 1.68-1.31 1.66-2.5 1.66zM334 354.45c3.82 0 7.63.05 11.45-.05.62 0 1.66-.56 1.78-1 1.11-4.38-2.57-12-6.87-13.72-10.32-4.12-19.34 2.64-19.09 13.14 0 1.28.55 1.72 1.79 1.7 3.64-.1 7.28-.07 10.94-.07zM241.3 358.89c-.08 7.28 0 12.8-1.85 18.29-3.51 10.27-10.24 16.29-20.92 18.48a33.53 33.53 0 0 1-23.32-3.12c-7.38-3.93-11.13-10.38-13-18.25-1.71-7.37-1.21-14.87-.83-22.27a30.38 30.38 0 0 1 7-18.45 24.85 24.85 0 0 1 16.38-8.89 43.06 43.06 0 0 1 15.27.59c9.97 2.37 15.97 8.52 19.26 17.73a41.78 41.78 0 0 1 2.01 15.89zm-17.06 1.58h.09c0-2.49.15-5-.05-7.47a22.79 22.79 0 0 0-1.18-6.72 12.76 12.76 0 0 0-16.77-6.86c-5.38 2.26-7.66 6.56-8 11.92-.34 5.63 0 11.29-.14 16.94a13 13 0 0 0 2 7c3.68 6.29 9.07 8.79 16.22 5.93 4.47-1.79 7.35-6.11 7.8-11.27.26-3.14.03-6.32.03-9.47z" transform="translate(-97.27 -94.49)"/><path class="cls-3" d="M413.27 359.88V329.4c0-3.75-.41-4.08 4.18-4h9.5c1.65 0 2.45.63 2.35 2.36s.44 2.19 2 1.14a25.1 25.1 0 0 1 15.32-4.46c3.47.15 7.06-.21 10.38.57 9 2.12 12.12 9.51 13.28 16 1.74 9.73.79 19.53 1 29.3.13 7 .06 14 0 21 0 3.75-.51 4.18-4.37 4.22-3.17 0-6.34.08-9.5 0-2.23-.07-2.92-.77-3-3s0-4.33 0-6.49c0-12.83 0-25.65-.1-38.48 0-6.47-2.65-8.85-9-9.14-4.07-.18-7.75 1.13-11.47 2.36-2.61.87-3.73 2.44-3.68 5.53.22 14.16.1 28.32.1 42.48 0 1 .07 2 0 3-.26 2.85-1.16 3.71-4 3.76-3 0-6 .05-9 0-3.41-.05-3.91-.54-3.93-4.12v-23.48z" transform="translate(-97.27 -94.49)"/><path class="cls-4" d="M642.17 359.52v-31c0-3.06.07-3.1 3-3.15s6 .08 9 0c2.17-.09 3.49.25 3.33 2.92-.1 1.52 1 1.22 2 .63 3.12-1.8 6.36-3.66 10-3.94 5.09-.41 10.34-.88 15.33-.09 7.56 1.21 11.8 6.6 13.45 13.88a44.52 44.52 0 0 1 1 9.28c.13 14.32.11 28.64.1 43 0 4.26-.26 4.45-4.55 4.5-2 0-4-.06-6 0-5.67.21-5.66-.51-5.63-5.43q.12-20 0-40a28.79 28.79 0 0 0-1.16-7.23 5.72 5.72 0 0 0-5.4-4.33c-3.77-.27-7.56-.39-11.26.95-7 2.54-7 2.48-7 10.1v43c0 1.8-.87 2.86-2.64 2.9-3.66.07-7.33 0-11 0a2.35 2.35 0 0 1-2.5-2.5c-.08-1.16 0-2.33 0-3.49q-.08-15.01-.07-30z" transform="translate(-97.27 -94.49)"/><path class="cls-2" d="M249.71 325.39h4c4.5 0 4.56.16 5.51 4.39 1.88 8.42 3.87 16.82 5.79 25.24 1.77 7.79 3.48 15.59 5.25 23.38a13.9 13.9 0 0 0 1.06 3.23 1.55 1.55 0 0 0 2.94-.19 36.56 36.56 0 0 0 1.92-6q5.11-22.39 10.1-44.82v-.5c1.05-4.67 1.05-4.68 5.72-4.69 3.33 0 6.66-.06 10 0 2.09 0 2.69.77 2.18 2.82-.9 3.64-1.94 7.23-3 10.84-4.3 15.19-9 30.28-12.78 45.59-2.77 11.09-14.75 14.14-23.15 10.37-4.35-1.95-6.77-5.61-8-10.08q-4.51-16-9-32c-2.13-7.68-4.17-15.39-6.27-23.08-.13-.47-.58-.87-.65-1.33-.35-2.42 0-3.3 2.33-3.2 2.05.1 4.05.03 6.05.03z" transform="translate(-97.27 -94.49)"/><path class="cls-5" d="M371.34 359.73c0-9.66.2-19.32-.08-29-.13-4.45 1.49-6.74 6-6.15a33.18 33.18 0 0 0 4 0c2.77 0 5.7-.56 6.84 3.2.38 1.26 1.52.62 2.46.1a25.76 25.76 0 0 1 13.61-3.56c3.52.1 4 .48 4 4 0 2.17.07 4.33 0 6.49-.09 2.88-.61 3.52-3.49 3.53-4.51 0-8.68 1.27-12.86 2.78-2.66 1-3.7 2.32-3.65 5.35.2 14.31.09 28.63.09 42.94 0 1 .05 2 0 3-.16 2.29-.72 3-3 3-3.5.1-7-.15-10.48.09-2.34.16-2.84-1.46-3.37-2.9-.38-1-.09-2.31-.09-3.47z" transform="translate(-97.27 -94.49)"/><path d="M335.28 241.64v1c-.09 2.13-.2 4.27-.3 6.4a83.66 83.66 0 0 1-8.63 3.3c-1.86.5-4 0-6 .18a6 6 0 0 1-6-3.68c-2.62-5.16-.3-13.6 7.09-14.34 3.92-.39 7.87-.56 11.8-.87 1.55-.13 2.05.57 2 2-.01 2.01.03 4.01.04 6.01z" transform="translate(-97.27 -94.49)" fill="#932f90"/><path d="M192.87 229.93c.46-4.09.83-8.19 1.42-12.25.75-5.15 5.62-9.74 12.44-10 6-.22 11.39 4.5 12.49 10.59a56.8 56.8 0 0 1-.06 22.61c-2.32 10.35-12.37 13.38-19.86 8.47-3.92-2.57-5.42-6.89-5.91-11.4a76 76 0 0 1 0-8z" transform="translate(-97.27 -94.49)" fill="#932d90"/></g><path class="cls-5" d="M114.27 478.49c-.24-4.7 1.66-8.95 2.79-13.36q3.59-14 7.22-27.9c.29-1.1.72-2.17 1-3.28.85-3.95 3.72-5.77 7.31-6.28a10.45 10.45 0 0 1 9.48 3c1.27 1.31 1.57 3 2 4.44 2.25 7.82 4.18 15.74 6.21 23.62 1.18 4.57 2.22 9.19 3.57 13.71.65 2.18.83 4.11-.53 6h-8c-.81-3.64-1.54-7.31-2.48-10.92-.81-3.14-.91-3.12-4.24-3.15-1.82 0-3.65-.07-5.48 0-2.11.1-4.81-.92-6.18.55s-1 3.95-1.65 5.95c-.79 2.59-.89 5.47-3 7.55zm20.41-22h4c1.36 0 1.67-.36 1.27-1.8-1-3.73-1.45-7.67-2.86-11.24-.81-2-.16-4.31-1.52-6.09-.28-.38-.67-.86-1.07-.92-.75-.1-1 .47-1.21 1.2-1 4.24-2 8.48-3 12.71-1.52 6.15-1.52 6.15 4.39 6.14z" transform="translate(-97.27 -94.49)"/><path class="cls-8" d="M413.27 478.49c-1-2.52-.86-5.15-.86-7.78v-25.42c0-4.79.12-4.91 5.09-4.82 1.49 0 3.24-.73 4.14 1.52.45 1.12 1.38-.05 2-.35 4.28-2 8.63-2.94 13.27-1.19 2.73 1 4.82 2.4 5.62 5.55.72 2.85 1.64 5.63 1.63 8.61 0 6.48-.15 13 .08 19.43a5.24 5.24 0 0 1-2 4.45h-7c0-4-.08-7.95-.1-11.92 0-4.64.11-9.28 0-13.91-.12-3.9-1.63-5.2-5.51-5.16a10.16 10.16 0 0 0-3.39.43c-4 1.39-4 1.3-4 5.43 0 6.46-.11 12.93.06 19.38a7.62 7.62 0 0 1-2 5.75z" transform="translate(-97.27 -94.49)"/><path class="cls-5" d="M306.27 478.49c-2.81-2.09-5.53-4-6.47-7.91-1.65-6.78 1.51-12.24 8.25-14.24 3.3-1 6.54-.67 9.81-.85 2.35-.12 2.45-.22 2.36-2.61-.13-3.9-1.53-5.38-5.36-5.43-3.66-.05-7.32.08-11 .08-2 0-2.43-1.29-2.46-3s-.13-3.74 2-3.93c5.52-.48 11-2 16.63-.25 5.18 1.6 8.94 5 9.11 10.24.26 8.32 0 16.65.22 25 .06 1.9-1.94 1.58-2.09 2.9zm14-12.89v-2.64c0-.83-.25-1.39-1-1.4-2.77 0-5.6-.53-8.23.9a5.11 5.11 0 0 0-2.55 4.5 4.07 4.07 0 0 0 2.2 4.12c2.76 1.16 5.5.1 8.07-.84 2.24-.83 1.31-3.07 1.47-4.64z" transform="translate(-97.27 -94.49)"/><path class="cls-9" d="M385.27 478.49c-.12-1.31-1.44-1.24-2.19-1.67-5.56-3.26-7.55-8.41-7.76-14.45-.13-3.47-.5-7 .33-10.41 2.67-10.83 13.37-14.95 22.79-10.9 5.76 2.47 8.54 6.89 8.84 13 .15 3 .07 6 0 9-.08 7.8-3.1 12-10.54 14.71-.23.09-.34.5-.51.76zm13-19c0-1.65.11-3.32 0-5-.27-3.43-3.06-6.73-5.81-7-3.7-.42-6 1.37-7.47 5.51-1.34 3.87-.91 7.87-.46 11.71s4.21 6.16 8.38 5.78c3.16-.28 5.17-2.89 5.38-7 .07-1.32.02-2.65.02-3.97z" transform="translate(-97.27 -94.49)"/><path class="cls-10" d="M228.27 478.49c-.05-1.14-1.13-1-1.77-1.4-5.9-3.38-8.15-8.72-8.21-15.21 0-3.3-.45-6.68.35-9.91 2.68-10.9 13.47-14.93 22.79-10.92 5.76 2.47 8.54 6.9 8.85 13 .16 3 .07 6 0 9-.08 7.79-3.12 12-10.54 14.72-.23.09-.34.5-.51.76zm13-19h-.06c0-2 .13-4 0-6-.21-2.6-3.31-5.72-5.72-6a6.74 6.74 0 0 0-7.29 4.54c-1.63 4.16-1.13 8.51-.67 12.69.45 4 4.17 6.14 8.39 5.76 3.16-.29 5.16-2.88 5.37-7 .07-1.33.02-2.66.02-3.99zM161.27 478.49c-.16-.26-.27-.69-.5-.76-1.2-.4-2.91-.1-3.27-1.71a18.16 18.16 0 0 1-.16-4.43c0-.77.63-1.11 1.36-1.07 3.12.16 6.32-.34 9.36.53a4.46 4.46 0 0 0 3.75-.26c.92-.51 2.37-.07 2.53-1.78a3.35 3.35 0 0 0-1.51-3.43c-2.35-1.49-4.76-2.87-7.12-4.32a84.57 84.57 0 0 1-3.7-2.45c-4.5-3.09-6.34-8.14-4.66-13.05.93-2.72 3.19-4.25 5.69-5.15a25 25 0 0 1 12.68-.71l3.85.65a4.39 4.39 0 0 1 3.1 6.78 1.59 1.59 0 0 1-2.07.82c-3.68-1.31-7.53-.5-11.31-.7a3.89 3.89 0 0 0-1.9.39c-1.59.79-1.54 2.62.19 3.77 3.54 2.35 7.17 4.58 10.75 6.89a11.25 11.25 0 0 1 4.28 4.65c2.64 5.61.92 11-4.57 14-.63.35-1.77.12-1.77 1.33z" transform="translate(-97.27 -94.49)"/><path class="cls-9" d="M191.27 478.49c-1.71-1.44-4.31-2.18-3.87-5.26.23-1.67.76-2.9 2.71-2.73 2.79.25 5.63-.29 8.37.62a6 6 0 0 0 1.93.31c2.27 0 4.54-1.3 4.8-2.81.39-2.12-1.33-2.74-2.74-3.59-2.94-1.79-5.73-3.88-8.79-5.41-3.43-1.72-5.09-4.72-6.21-8-1.3-3.75 1.93-9.76 5.72-11a25.7 25.7 0 0 1 12.24-.85c1.76.28 3.54.56 5.33.79s2.53 1.1 2.6 3c.17 4 .2 4.05-4 4-3 0-6-.1-9-.1a5.29 5.29 0 0 0-2.9.42 1.77 1.77 0 0 0-.52 2.87 9.79 9.79 0 0 0 2.76 2c3.28 1.84 6.49 3.82 9.67 5.84 4.07 2.6 5.6 6.46 4.8 11.1-.68 4-2.82 6.89-7 7.84a1.1 1.1 0 0 0-.95 1z" transform="translate(-97.27 -94.49)"/><path class="cls-8" d="M265.27 478.49c-1.37-1.43-3.44-1.47-5-2.57a13.87 13.87 0 0 1-5.59-10c-.62-5.17-.87-10.45.52-15.7 1.78-6.68 6.6-9.51 12.73-10.51a20.91 20.91 0 0 1 10.26.83c1.22.43 2.08 1.11 2 2.45s.56 3-.53 4.26c-.33.37-1.21.34-1.85.35-2.49 0-5-.08-7.47-.05-3.24 0-5.06 1.39-6.1 4.59-1.63 5-1.24 10 .22 15a4.62 4.62 0 0 0 5.22 3.56c2.82-.16 5.65-.08 8.47-.17 1.43 0 2.21.44 2.07 2a2.78 2.78 0 0 0 0 .5c.15 3.62.15 3.62-2.94 5.53z" transform="translate(-97.27 -94.49)"/><path class="cls-2" d="M345.27 478.49c-3.86-2.34-5.26-5.73-5.07-10.25.28-6.31.1-12.64.06-19 0-2.57-.08-2.58-2.8-2.75-.66 0-1.33 0-2-.08-2.81-.29-4-2.11-3.05-4.89a1.8 1.8 0 0 1 .93-1 4.22 4.22 0 0 1 1.48-.14c1.63-.08 3.61.39 4.82-.37 1.43-.9.49-3.05.6-4.65.08-1.13.3-2 1.63-1.95 2.38 0 4.62-2.08 7.07-.48.28.18.29.89.31 1.35 0 1.33.06 2.67 0 4s.25 2.28 1.89 2.1a6.84 6.84 0 0 1 1.5 0c1.11.13 2.55-.57 3.27.47 1 1.42.44 3.2.33 4.81 0 .3-.67.62-1.08.81a3.2 3.2 0 0 1-1 .05c-4.9.31-4.9.31-4.91 5.08v15.47c0 4.07.11 4.13 4.11 4.34 2.94.16 3 .16 3 3 0 1.33-.06 2.66-.1 4z" transform="translate(-97.27 -94.49)"/><path class="cls-4" d="M286.27 478.49a7.44 7.44 0 0 1-1-3.69c.08-10.45 0-20.9 0-31.35 0-2.92.07-2.92 3-3h2c4.5 0 4-.19 4 4v29.36c0 1.64.11 3.28-1 4.66zM361.27 478.49c0-11.78-.09-23.56-.09-35.34 0-2.62.07-2.63 2.8-2.7h2.49c2.84.07 2.9.07 2.9 3.07v30.87a6.29 6.29 0 0 1-1.14 4.1z" transform="translate(-97.27 -94.49)"/><path d="M366 426.55h2.47c1.25-.05 1.79.56 1.74 1.78v.49c-.2 2.09.93 4.83-.59 6.11-1.84 1.55-4.73.43-7.16.55a2 2 0 0 1-2.06-1.79 21.68 21.68 0 0 1 0-5.4 2.11 2.11 0 0 1 2.12-1.74h3.46z" transform="translate(-97.27 -94.49)" fill="#78797b"/><path class="cls-8" d="M289.87 426.57h2.86a1.36 1.36 0 0 1 1.57 1.43 8.14 8.14 0 0 1 0 1.48c-.22 1.92 1 4.59-.68 5.59-2 1.23-4.81.39-7.27.35-.75 0-1.08-.65-1.1-1.36s0-1.66 0-2.49c.01-5.89-.49-4.91 4.62-5z" transform="translate(-97.27 -94.49)"/></svg>